<?xml version="1.0" standalone="no"?> <!DOCTYPE svg PUBLIC "-//W3C//DTD SVG 1.0//EN" "http://www.w3.org/TR/2001/REC-SVG-20010904/DTD/svg10.dtd" > <svg xmlns="http://www.w3.org/2000/svg" width="100%" height="100%">
<defs >
<font id="vestassans-book" horiz-adv-x="411" ><font-face
    font-family="Vestas Sans Book 081107"
    units-per-em="1000"
    panose-1="2 0 0 0 0 0 0 0 0 0"
    ascent="750"
    descent="-250"
    alphabetic="0" />
<missing-glyph horiz-adv-x="850" d="M782 0H68V680H782V0ZM191 614L425 387L659 614H191ZM425 293L191 66H659L425 293ZM475 340L708 114V566L475 340ZM376 340L143 565V114L376 340Z" />
<glyph unicode=" " glyph-name="space" horiz-adv-x="178" />
<glyph unicode="!" glyph-name="exclam" horiz-adv-x="178" d="M110 210H68L42 680H136L110 210ZM111 -10T89 -10T52 4T37 40T52 75T89 90T126 76T142 40T127 5Z" />
<glyph unicode="&quot;" glyph-name="quotedbl" horiz-adv-x="346" d="M120 470H80L47 700H152L120 470ZM267 470H227L194 700H299L267 470Z" />
<glyph unicode="#" glyph-name="numbersign" horiz-adv-x="630" d="M374 0H303L353 180H189L140 0H69L119 180H21L42 246H136L188 434H83L104 500H207L256 680H327L277 500H441L490 680H561L511 500H609L588 434H492L441 246H547L526 180H423L374 0ZM371 246L422
434H258L207 246H371Z" />
<glyph unicode="$" glyph-name="dollar" horiz-adv-x="566" d="M216 0H139L173 85Q87 96 62 108V167Q87 157 146 149T260 140Q443 140 443 234Q443 277 406 294T280 318Q156 327 104 354T52 448Q52 599 316 599L344 680H422L387 594Q455 585 486 572V514Q407 539
292 539Q206 539 164 519T121 448Q121 428 131 415T165 394T215 383T286 376Q410 366 461 338T512 235Q512 160 445 120T245 79L216 0Z" />
<glyph unicode="%" glyph-name="percent" horiz-adv-x="975" d="M743 -10Q564 -10 564 175T743 360Q923 360 923 175T743 -10ZM743 50Q803 50 829 79T856 175T830 271T743 300Q684 300 658 271T631 175T657 79T743 50ZM412 320T232 320T52 505T232 690T412 505ZM276
0H195L699 680H780L276 0ZM172 380T232 380T318 409T344 505T318 601T232 630T146 601T120 505T146 409Z" />
<glyph unicode="&amp;" glyph-name="ampersand" horiz-adv-x="625" d="M593 64V0Q521 20 454 56Q361 -10 246 -10Q141 -10 81 37T21 185Q21 248 50 291T144 371Q101 462 101 532Q101 597 141 643T268 690Q354 690 391 646T428 537Q428 432 272 366Q265 363 232
348Q264 293 299 255Q357 186 442 134Q517 209 517 330Q517 373 507 420H574Q583 376 583 331Q583 190 503 100Q554 75 593 64ZM388 93Q300 151 247 215Q202 266 172 316Q130 289 112 259T94 185Q94 54 246 54Q320 54 388 93ZM204 402L247 421Q357 467 357 537Q357
579 338 603T268 628Q173 628 173 532Q173 472 204 402Z" />
<glyph unicode="&apos;" glyph-name="quotesingle" horiz-adv-x="199" d="M120 470H80L47 700H152L120 470Z" />
<glyph unicode="(" glyph-name="parenleft" horiz-adv-x="294" d="M234 -166H155Q112 -86 82 34T52 300T82 566T155 766H234Q191 686 161 566T130 300T160 35T234 -166Z" />
<glyph unicode=")" glyph-name="parenright" horiz-adv-x="294" d="M139 -166H60Q103 -86 133 34T164 300T134 565T60 766H139Q182 687 211 567T241 300T212 34T139 -166Z" />
<glyph unicode="*" glyph-name="asterisk" horiz-adv-x="373" d="M332 395L266 352L194 478L228 500L332 395ZM108 350L44 396L146 500L180 478L108 350ZM207 559H167L146 700H228L207 559ZM379 538L232 514L220 551L356 612L379 538ZM142 514L-6 538L19 611L153
551L142 514Z" />
<glyph unicode="+" glyph-name="plus" horiz-adv-x="525" d="M297 100H228V267H52V333H228V500H297V333H472V267H297V100Z" />
<glyph unicode="," glyph-name="comma" horiz-adv-x="178" d="M68 -125H16L42 66H136L68 -125Z" />
<glyph unicode="-" glyph-name="hyphen" horiz-adv-x="325" d="M273 267H52V333H273V267Z" />
<glyph unicode="." glyph-name="period" horiz-adv-x="178" d="M111 -10T89 -10T52 4T37 40T52 75T89 90T126 76T142 40T127 5Z" />
<glyph unicode="/" glyph-name="slash" horiz-adv-x="409" d="M77 -170H0L333 720H409L77 -170Z" />
<glyph unicode="0" glyph-name="zero" horiz-adv-x="630" d="M210 52T315 52T456 122T492 340T456 558T315 628T174 558T138 340T174 122ZM391 -10T315 -10T189 13T111 84T74 192T63 340T73 488T111 596T188 667T315 690T441 667T519 596T556 488T567 340T557
192T519 84T442 13Z" />
<glyph unicode="1" glyph-name="one" horiz-adv-x="630" d="M526 0H108V40L281 50V618L103 603V630L323 690H353V50L526 40V0Z" />
<glyph unicode="2" glyph-name="two" horiz-adv-x="630" d="M560 0H69V46Q207 158 291 233T416 359T468 438T480 501Q480 563 443 595T313 627Q217 627 124 590V657Q201 690 312 690Q553 690 553 501Q553 423 476 334T167 64H560V0Z" />
<glyph unicode="3" glyph-name="three" horiz-adv-x="630" d="M71 25V93Q168 54 277 54Q481 54 481 192Q481 263 440 293T306 323H160V387H306Q384 387 420 421T456 507Q456 563 414 594T271 626T73 587V655Q154 690 270 690Q531 690 531 507Q531 457 502 417T429
360Q487 347 522 301T558 192Q558 -10 276 -10Q150 -10 71 25Z" />
<glyph unicode="4" glyph-name="four" horiz-adv-x="630" d="M460 0H388V199H57V241L406 690H460V261H572V199H460V0ZM388 261L391 576L147 259L388 261Z" />
<glyph unicode="5" glyph-name="five" horiz-adv-x="630" d="M86 22V86Q177 52 268 52Q468 52 468 209Q468 247 458 272T432 311T389 332T338 340T275 342H114V680H527V618H186V402Q244 407 295 407Q353 407 394 399T471 371T525 310T543 209Q543 -10 267 -10Q159
-10 86 22Z" />
<glyph unicode="6" glyph-name="six" horiz-adv-x="630" d="M533 656V589Q461 626 351 626Q149 625 142 357V343Q165 380 212 405T327 431Q384 431 426 417T493 382T532 331T551 272T556 211Q556 169 546 134T513 64T441 10T324 -10Q249 -10 199 12T121 79T84
180T73 317Q73 498 137 594T351 690Q470 690 533 656ZM151 216Q153 181 160 155T184 104T237 65T324 52Q374 52 408 66T457 107T478 157T484 211Q484 242 479 265T459 314T410 354T324 368Q235 368 196 324T151 216Z" />
<glyph unicode="7" glyph-name="seven" horiz-adv-x="630" d="M237 0H147L500 618H54V680H575V632L237 0Z" />
<glyph unicode="8" glyph-name="eight" horiz-adv-x="630" d="M449 361Q505 345 536 297T567 193Q567 103 508 47T315 -10T123 46T63 193Q63 249 93 297T181 361Q137 380 113 418T89 502Q89 586 142 638T315 690T487 638T541 502Q541 456 517 418T449 361ZM489
193Q489 260 449 292T315 325Q220 325 180 293T140 193Q140 52 315 52Q489 52 489 193ZM465 502Q465 528 460 547T441 586T394 617T315 628T236 617T190 587T170 548T165 502Q165 387 315 387T465 502Z" />
<glyph unicode="9" glyph-name="nine" horiz-adv-x="630" d="M97 24V91Q169 54 279 54Q481 55 488 323V337Q465 300 418 275T303 249Q73 249 73 469Q73 510 83 546T117 616T189 670T306 690Q381 690 431 668T508 601T545 500T556 363Q556 182 492 86T279 -10Q160
-10 97 24ZM479 464Q477 499 470 525T446 576T393 615T306 628Q256 628 222 614T173 573T152 523T146 469Q146 438 151 415T171 366T220 326T306 312Q395 312 434 356T479 464Z" />
<glyph unicode=":" glyph-name="colon" horiz-adv-x="178" d="M111 -10T89 -10T52 4T37 40T52 75T89 90T126 76T142 40T127 5ZM111 325T89 325T52 339T37 375T52 410T89 425T126 411T142 375T127 340Z" />
<glyph unicode=";" glyph-name="semicolon" horiz-adv-x="178" d="M68 -125H16L42 66H136L68 -125ZM111 325T89 325T52 339T37 375T52 410T89 425T126 411T142 375T127 340Z" />
<glyph unicode="&lt;" glyph-name="less" horiz-adv-x="525" d="M472 34L52 267V333L472 566V493L125 300L472 107V34Z" />
<glyph unicode="=" glyph-name="equal" horiz-adv-x="525" d="M472 333H52V399H472V333ZM472 201H52V267H472V201Z" />
<glyph unicode="&gt;" glyph-name="greater" horiz-adv-x="525" d="M472 267L52 34V107L400 300L52 493V566L472 333V267Z" />
<glyph unicode="?" glyph-name="question" horiz-adv-x="493" d="M191 200H152Q143 243 143 269Q143 315 167 344T227 388T297 415T356 454T381 521Q381 547 375 564T352 597T298 620T205 628Q116 628 26 594V659Q104 690 204 690Q283 690 335 676T410 636T442
584T451 522Q451 469 424 435T359 383T283 352T218 311T191 245V200ZM209 -10T187 -10T150 4T134 40T149 75T187 90T224 76T239 40T224 5Z" />
<glyph unicode="@" glyph-name="at" horiz-adv-x="892" d="M709 -34L710 -96Q596 -135 441 -135Q238 -135 140 -42T42 250T140 542T441 635Q643 635 746 553T850 308Q850 273 846 242T826 174T787 111T718 68T616 50H575L560 87Q498 40 423 40Q244 40 244 250T423
460Q498 460 560 413L575 450H616V107Q707 107 745 157T783 313Q783 454 701 515T441 576Q266 576 190 501T114 250T190 0T441 -76Q605 -76 709 -34ZM543 134V366Q484 398 433 398Q366 398 342 363T317 250T341 137T433 102Q484 102 543 134Z" />
<glyph unicode="A" glyph-name="A" horiz-adv-x="640" d="M609 0H529L464 185H176L111 0H31L294 690H346L609 0ZM444 242L320 585L196 242H444Z" />
<glyph unicode="B" glyph-name="B" horiz-adv-x="588" d="M302 0H79V680H292Q514 680 514 501Q514 456 491 418T425 363Q481 347 511 300T541 194Q541 106 485 53T302 0ZM149 62H308Q397 62 430 98T463 194Q463 262 429 294T309 326H149V62ZM149 388H310Q439 388
439 501Q439 554 411 586T302 618H149V388Z" />
<glyph unicode="C" glyph-name="C" horiz-adv-x="577" d="M525 86V21Q449 -10 344 -10Q63 -10 63 340T344 690Q449 690 525 659V594Q437 627 344 627Q138 627 138 340T344 53Q437 53 525 86Z" />
<glyph unicode="D" glyph-name="D" horiz-adv-x="651" d="M278 0H79V680H278Q588 680 588 340T278 0ZM149 62H281Q513 62 513 340T281 618H149V62Z" />
<glyph unicode="E" glyph-name="E" horiz-adv-x="567" d="M504 0H79V680H504V618H149V384H467V322H149V62H504V0Z" />
<glyph unicode="F" glyph-name="F" horiz-adv-x="535" d="M149 0H79V680H493V618H149V384H457V322H149V0Z" />
<glyph unicode="G" glyph-name="G" horiz-adv-x="640" d="M562 356V29Q475 -10 344 -10Q63 -10 63 340T352 690Q472 690 546 654V589Q490 611 451 619T352 627Q239 627 189 549T138 340Q138 53 344 53Q437 53 491 72V294H350V356H562Z" />
<glyph unicode="H" glyph-name="H" horiz-adv-x="661" d="M583 0H512V322H149V0H79V680H149V384H512V680H583V0Z" />
<glyph unicode="I" glyph-name="I" horiz-adv-x="262" d="M167 0H96V680H167V0Z" />
<glyph unicode="J" glyph-name="J" horiz-adv-x="378" d="M222 138V680H294V140Q294 -10 107 -10Q63 -10 34 -3V61Q67 53 107 53Q222 53 222 138Z" />
<glyph unicode="K" glyph-name="K" horiz-adv-x="598" d="M577 0H485L232 347L149 262V0H79V680H149V347L453 680H547L277 395L577 0Z" />
<glyph unicode="L" glyph-name="L" horiz-adv-x="525" d="M488 0H79V680H149V62H488V0Z" />
<glyph unicode="M" glyph-name="M" horiz-adv-x="787" d="M709 0H638L644 601L424 101H363L144 601L149 0H79V680H183L394 190L605 680H709V0Z" />
<glyph unicode="N" glyph-name="N" horiz-adv-x="651" d="M572 0H521L148 543L149 0H79V680H130L503 137L502 680H572V0Z" />
<glyph unicode="O" glyph-name="O" horiz-adv-x="682" d="M341 52Q393 52 430 67T489 106T524 169T541 247T545 340T541 432T524 510T489 573T430 613T341 628Q290 628 253 613T194 574T159 511T142 433T138 340T142 248T159 170T193 107T252 67T341 52ZM341 -10Q273
-10 222 9T141 60T93 138T69 232T63 340T69 447T93 542T141 620T222 670T341 690Q410 690 460 671T541 620T589 542T613 448T619 340T613 233T589 138T541 60T461 10T341 -10Z" />
<glyph unicode="P" glyph-name="P" horiz-adv-x="577" d="M149 0H79V680H296Q421 680 478 622T535 473T478 325T296 266H149V0ZM149 328H302Q459 328 459 473T302 618H149V328Z" />
<glyph unicode="Q" glyph-name="Q" horiz-adv-x="682" d="M726 -170L222 9Q140 38 102 119T63 340Q63 400 69 447T93 542T141 620T222 670T341 690Q410 690 460 671T541 620T589 542T613 448T619 340Q619 194 577 109T433 0V-1L726 -98V-170ZM341 52Q393 52 430
67T489 106T524 169T541 247T545 340T541 432T524 510T489 573T430 613T341 628Q290 628 253 613T194 574T159 511T142 433T138 340T142 248T159 170T193 107T252 67T341 52Z" />
<glyph unicode="R" glyph-name="R" horiz-adv-x="609" d="M567 0H485L328 292L149 291V0H79V680H297Q424 680 477 630T530 485Q530 337 399 302L567 0ZM149 354H309Q395 354 424 388T454 485Q454 548 425 582T309 617H149V354Z" />
<glyph unicode="S" glyph-name="S" horiz-adv-x="567" d="M52 26V90Q53 90 69 85T89 78T109 72T133 66T157 61T187 57T217 54T252 53Q439 53 439 196Q439 261 406 287T287 323Q164 337 108 376T52 497Q52 532 63 563T99 624T175 672T294 690Q405 690 479 658V593Q390
627 293 627Q197 627 161 592T124 496Q124 436 162 415T293 384Q403 371 458 329T514 196Q514 158 502 124T461 59T379 9T251 -10Q204 -10 146 0T52 26Z" />
<glyph unicode="T" glyph-name="T" horiz-adv-x="567" d="M319 0H248V618H42V680H525V618H319V0Z" />
<glyph unicode="U" glyph-name="U" horiz-adv-x="672" d="M528 222V680H598V214Q598 149 574 103T508 33T425 0T336 -10T247 0T164 33T98 102T73 214V680H144V222Q144 53 336 53T528 222Z" />
<glyph unicode="V" glyph-name="V" horiz-adv-x="640" d="M346 -10H294L31 680H111L320 95L529 680H609L346 -10Z" />
<glyph unicode="W" glyph-name="W" horiz-adv-x="903" d="M694 -10H624L451 595L279 -10H209L42 680H119L246 98L413 680H490L657 98L784 680H861L694 -10Z" />
<glyph unicode="X" glyph-name="X" horiz-adv-x="619" d="M583 0H500L310 300L120 0H37L265 348L42 680H123L310 391L497 680H577L355 348L583 0Z" />
<glyph unicode="Y" glyph-name="Y" horiz-adv-x="630" d="M352 0H278L279 263L42 680H123L315 328L507 680H588L351 263L352 0Z" />
<glyph unicode="Z" glyph-name="Z" horiz-adv-x="598" d="M556 0H42V46L450 620L62 617V680H542V634L134 60L556 63V0Z" />
<glyph unicode="[" glyph-name="bracketleft" horiz-adv-x="241" d="M210 -166H68V766H210V700H143V-100H210V-166Z" />
<glyph unicode="\" glyph-name="backslash" horiz-adv-x="409" d="M409 -170H333L0 720H77L409 -170Z" />
<glyph unicode="]" glyph-name="bracketright" horiz-adv-x="241" d="M173 -166H31V-100H99V700H31V766H173V-166Z" />
<glyph unicode="^" glyph-name="asciicircum" horiz-adv-x="588" d="M573 315H497L294 626L91 315H15L259 700H329L573 315Z" />
<glyph unicode="_" glyph-name="underscore" horiz-adv-x="294" d="M294 -155H0V-95H294V-155Z" />
<glyph unicode="`" glyph-name="grave" horiz-adv-x="598" d="M325 550H273L194 700H286L325 550Z" />
<glyph unicode="a" glyph-name="a" horiz-adv-x="514" d="M446 0H405L390 40Q317 -10 231 -10Q135 -10 91 35T47 151Q47 296 234 307L373 315V343Q373 399 346 423T248 448Q169 448 90 423V483Q155 510 248 510Q359 510 402 467T446 342V0ZM373 92V266L229 253Q122
243 122 151Q122 131 125 116T139 85T173 61T233 52Q301 52 373 92Z" />
<glyph unicode="b" glyph-name="b" horiz-adv-x="541" d="M109 0H68V700H142V469Q208 510 278 510Q394 510 441 445T488 250T441 56T278 -10Q210 -10 125 41L109 0ZM142 416V84Q204 52 278 52Q362 52 388 100T415 250T389 400T278 448Q204 448 142 416Z" />
<glyph unicode="c" glyph-name="c" horiz-adv-x="446" d="M404 75V15Q343 -10 264 -10Q147 -10 100 56T52 250T99 444T264 510Q343 510 404 485V425Q331 448 262 448Q179 448 153 400T126 250T152 100T262 52Q331 52 404 75Z" />
<glyph unicode="d" glyph-name="d" horiz-adv-x="541" d="M472 0H432L416 41Q331 -10 262 -10Q146 -10 99 56T52 250T99 444T262 510Q333 510 399 469V700H472V0ZM399 84V416Q337 448 262 448Q179 448 153 400T126 250T152 100T262 52Q337 52 399 84Z" />
<glyph unicode="e" glyph-name="e" horiz-adv-x="504" d="M436 80V20Q365 -10 262 -10Q146 -10 99 56T52 250T99 444T262 510Q314 510 351 496T408 461T440 403T454 333T457 250V218H126Q128 133 156 93T262 52Q367 52 436 80ZM126 275H383Q383 310 382 328T375
373T357 414T321 437T262 448Q184 448 156 406T126 275Z" />
<glyph unicode="f" glyph-name="f" horiz-adv-x="325" d="M162 0H90V445H17V492L90 500V570Q90 710 255 710Q288 710 313 704V642Q288 648 255 648Q162 648 162 570V500H302V445H162V0Z" />
<glyph unicode="g" glyph-name="g" horiz-adv-x="541" d="M399 0V51Q325 10 262 10Q52 10 52 260T262 510Q342 510 416 458L432 500H472V15Q472 -82 430 -126T268 -170Q141 -170 73 -139V-70Q162 -111 268 -111Q344 -111 371 -85T399 0ZM399 104V416Q337 448 262
448Q221 448 193 433T151 390T132 332T126 260T131 189T150 130T192 87T262 72Q337 72 399 104Z" />
<glyph unicode="h" glyph-name="h" horiz-adv-x="525" d="M462 0H388V363Q388 410 362 429T283 448Q198 448 140 416V0H68V700H140V469Q206 510 283 510Q462 510 462 360V0Z" />
<glyph unicode="i" glyph-name="i" horiz-adv-x="241" d="M156 0H85V500H156V0ZM143 575T121 575T84 589T68 625T83 660T121 675T158 661T173 625T158 590Z" />
<glyph unicode="j" glyph-name="j" horiz-adv-x="241" d="M-8 -165V-107Q9 -112 30 -112Q59 -112 72 -99T85 -49V500H156V-45Q156 -170 30 -170Q9 -170 -8 -165ZM143 575T121 575T84 589T68 625T83 660T121 675T158 661T173 625T158 590Z" />
<glyph unicode="k" glyph-name="k" horiz-adv-x="493" d="M472 0H385L202 256L140 194V0H68V700H140V279L352 500H444L247 302L472 0Z" />
<glyph unicode="l" glyph-name="l" horiz-adv-x="241" d="M156 0H85V700H156V0Z" />
<glyph unicode="m" glyph-name="m" horiz-adv-x="782" d="M719 0H646V363Q646 448 556 448Q486 448 423 415Q430 393 430 360V0H357V363Q357 448 268 448Q200 448 142 419V0H68V500H109L124 461Q184 510 273 510Q365 510 405 454Q469 510 562 510Q637 510 678
472T719 360V0Z" />
<glyph unicode="n" glyph-name="n" horiz-adv-x="525" d="M462 0H388V363Q388 410 362 429T283 448Q201 448 142 416V0H68V500H109L125 458Q198 510 283 510Q462 510 462 360V0Z" />
<glyph unicode="o" glyph-name="o" horiz-adv-x="525" d="M378 -10T262 -10T99 56T52 250T99 444T262 510T425 445T472 250T425 56ZM262 52Q346 52 372 100T399 250T373 400T262 448Q179 448 153 400T126 250T152 100T262 52Z" />
<glyph unicode="p" glyph-name="p" horiz-adv-x="541" d="M142 -160H68V500H109L125 459Q210 510 278 510Q394 510 441 445T488 250T441 56T278 -10Q208 -10 142 31V-160ZM142 416V84Q204 52 278 52Q362 52 388 100T415 250T389 400T278 448Q204 448 142 416Z" />
<glyph unicode="q" glyph-name="q" horiz-adv-x="541" d="M472 -160H399V31Q333 -10 262 -10Q146 -10 99 56T52 250T99 444T262 510Q331 510 416 459L432 500H472V-160ZM399 84V416Q337 448 262 448Q179 448 153 400T126 250T152 100T262 52Q337 52 399 84Z" />
<glyph unicode="r" glyph-name="r" horiz-adv-x="325" d="M142 0H68V500H109L125 458Q198 510 302 510V445Q203 445 142 413V0Z" />
<glyph unicode="s" glyph-name="s" horiz-adv-x="462" d="M61 13V74Q131 52 208 52Q283 52 309 75T336 139T314 202T227 230Q131 238 93 273T55 367Q55 428 99 469T240 510Q328 510 381 488V427Q315 448 239 448Q171 448 148 428T124 367Q124 331 146 312T232
287Q329 278 368 243T407 140Q407 -10 207 -10Q119 -10 61 13Z" />
<glyph unicode="t" glyph-name="t" horiz-adv-x="346" d="M306 51V-5Q284 -10 255 -10Q184 -10 137 23T90 126V445H17V492L90 500V608L164 618V500H313V445H164V134Q164 89 187 69T261 48Q285 48 306 51Z" />
<glyph unicode="u" glyph-name="u" horiz-adv-x="525" d="M457 0H416L400 42Q327 -10 241 -10Q63 -10 63 140V500H136V137Q136 90 162 71T241 52Q324 52 383 84V500H457V0Z" />
<glyph unicode="v" glyph-name="v" horiz-adv-x="483" d="M278 -10H205L21 500H98L241 75L385 500H462L278 -10Z" />
<glyph unicode="w" glyph-name="w" horiz-adv-x="672" d="M525 -10H458L336 428L214 -10H147L26 500H101L183 105L289 500H383L489 105L571 500H646L525 -10Z" />
<glyph unicode="x" glyph-name="x" horiz-adv-x="483" d="M462 0H376L241 210L107 0H21L196 257L31 500H118L241 304L365 500H451L287 257L462 0Z" />
<glyph unicode="y" glyph-name="y" horiz-adv-x="483" d="M219 -160H138L205 15L21 500H102L241 90L381 500H462L274 0L219 -160Z" />
<glyph unicode="z" glyph-name="z" horiz-adv-x="441" d="M407 0H34V45L315 442L45 441V500H401V455L120 58L407 59V0Z" />
<glyph unicode="{" glyph-name="braceleft" horiz-adv-x="220" d="M189 -166H173Q111 -166 81 -139T55 -57L73 228Q75 248 65 257T29 267H19V333H29Q54 333 64 342T73 372L55 657Q51 712 81 739T173 766H189V700H173Q149 700 138 690T129 661L148 376Q151 325
106 300Q151 275 148 224L129 -61Q127 -80 138 -90T173 -100H189V-166Z" />
<glyph unicode="|" glyph-name="bar" horiz-adv-x="257" d="M166 -170H91V720H166V-170Z" />
<glyph unicode="}" glyph-name="braceright" horiz-adv-x="220" d="M47 -166H31V-100H47Q72 -100 82 -90T91 -61L72 224Q69 274 114 300Q69 326 72 376L91 661Q93 680 83 690T47 700H31V766H47Q109 766 139 739T166 657L147 372Q145 351 155 342T191 333H202V267H191Q166
267 156 258T147 228L166 -57Q170 -112 140 -139T47 -166Z" />
<glyph unicode="~" glyph-name="asciitilde" horiz-adv-x="514" d="M467 341V276Q429 242 361 242Q325 242 296 253T249 278T207 303T155 315Q120 315 91 302T47 275V340Q85 374 153 374Q189 374 218 363T265 338T307 313T359 301Q395 301 424 314T467 341Z" />
</font>
</defs>
</svg>
