<?xml version="1.0" standalone="no"?> <!DOCTYPE svg PUBLIC "-//W3C//DTD SVG 1.0//EN" "http://www.w3.org/TR/2001/REC-SVG-20010904/DTD/svg10.dtd" > <svg xmlns="http://www.w3.org/2000/svg" width="100%" height="100%">
<defs >
<font id="vestassans_semibold" horiz-adv-x="558" ><font-face
    font-family="Vestas Sans Semibold"
    units-per-em="1000"
    panose-1="0 0 0 0 0 0 0 0 0 0"
    ascent="750"
    descent="-250"
    alphabetic="0" />
<missing-glyph horiz-adv-x="850" d="M782 0H68V680H782V0ZM191 614L425 387L659 614H191ZM425 293L191 66H659L425 293ZM475 340L708 114V566L475 340ZM376 340L143 565V114L376 340Z" />
<glyph unicode=" " glyph-name="space" horiz-adv-x="178" />
<glyph unicode="!" glyph-name="exclam" horiz-adv-x="226" d="M70 228L31 680H195L156 228H70ZM32 33T32 67T55 124T113 148T170 125T194 67T171 10T113 -14T56 9Z" />
<glyph unicode="&quot;" glyph-name="quotedbl" horiz-adv-x="424" d="M162 461H69L34 700H196L162 461ZM355 461H262L227 700H389L355 461Z" />
<glyph unicode="#" glyph-name="numbersign" horiz-adv-x="680" d="M414 0H304L352 162H225L178 0H69L117 162H21L51 264H145L190 416H89L120 518H219L266 680H376L328 518H455L502 680H611L564 518H660L629 416H534L490 264H591L560 162H461L414 0ZM381 264L425
416H299L254 264H381Z" />
<glyph unicode="$" glyph-name="dollar" horiz-adv-x="569" d="M237 0H121L155 84Q73 97 46 108L48 219Q85 204 150 195T268 185Q393 185 393 243Q393 271 369 281T288 296Q152 307 96 335T40 439Q40 603 298 603H299L326 680H442L408 595Q481 584 505 574L503
464Q420 494 292 494Q233 494 204 481T175 437Q175 412 199 403T281 390Q417 379 472 351T527 242Q527 163 463 119T265 75H264L237 0Z" />
<glyph unicode="%" glyph-name="percent" horiz-adv-x="1034" d="M798 -14Q598 -14 598 184T798 382Q999 382 999 184T798 -14ZM756 94T798 94T858 114T876 184T858 253T798 274T739 254T721 184T738 115ZM437 298T236 298T35 496T236 694T437 496ZM320 0H210L714
680H824L320 0ZM194 406T236 406T296 426T314 496T296 565T236 586T176 566T158 496T176 427Z" />
<glyph unicode="&amp;" glyph-name="ampersand" horiz-adv-x="681" d="M654 116V-8Q571 9 490 49Q391 -14 272 -14Q19 -14 19 192Q19 304 137 373Q94 456 94 526Q94 597 144 645T296 694Q395 694 441 649T488 538Q488 481 448 442T336 372Q310 363 292 353Q325
307 358 278Q402 232 470 193Q523 256 523 344Q523 391 516 420H636Q644 388 644 344Q644 229 579 141Q620 124 654 116ZM373 118Q305 162 264 206Q224 246 196 284Q148 251 148 199Q148 95 274 95Q327 95 373 118ZM247 428Q249 429 259 433T277 442T288 447Q364
480 364 528Q364 591 296 591Q224 591 224 525Q224 481 247 428Z" />
<glyph unicode="&apos;" glyph-name="quotesingle" horiz-adv-x="230" d="M162 461H69L34 700H196L162 461Z" />
<glyph unicode="(" glyph-name="parenleft" horiz-adv-x="317" d="M268 -166H151Q108 -87 78 32T47 300T77 567T151 766H268Q162 569 162 300T268 -166Z" />
<glyph unicode=")" glyph-name="parenright" horiz-adv-x="317" d="M156 -166H39Q83 -85 113 35T144 300T114 565T39 766H156Q199 688 229 568T259 300T229 32T156 -166Z" />
<glyph unicode="*" glyph-name="asterisk" horiz-adv-x="469" d="M465 482L327 459L424 360L304 271L235 395L166 270L47 360L143 459L4 482L50 624L180 563L161 700H309L289 563L421 624L465 482Z" />
<glyph unicode="+" glyph-name="plus" horiz-adv-x="567" d="M349 69H218V235H44V366H218V532H349V366H522V235H349V69Z" />
<glyph unicode="," glyph-name="comma" horiz-adv-x="226" d="M107 -125H6L37 126H193L107 -125Z" />
<glyph unicode="-" glyph-name="hyphen" horiz-adv-x="339" d="M299 259H40V372H299V259Z" />
<glyph unicode="." glyph-name="period" horiz-adv-x="226" d="M147 -14T113 -14T56 9T32 67T55 124T113 148T170 125T194 67T171 10Z" />
<glyph unicode="/" glyph-name="slash" horiz-adv-x="476" d="M144 -170H0L333 720H476L144 -170Z" />
<glyph unicode="0" glyph-name="zero" horiz-adv-x="630" d="M237 106T315 106T420 160T448 340T421 519T315 574T210 520T182 340T209 161ZM464 -14T315 -14T108 69T50 340Q50 528 108 611T315 694T521 611T579 340T522 69Z" />
<glyph unicode="1" glyph-name="one" horiz-adv-x="630" d="M547 0H90V93L248 101V565L89 553V630L328 694H388V101L547 93V0Z" />
<glyph unicode="2" glyph-name="two" horiz-adv-x="630" d="M568 0H62V85Q176 171 248 234T357 341T405 414T417 474Q417 522 387 547T283 573Q196 573 103 536L101 655Q186 694 308 694Q557 694 557 496Q557 416 485 332T228 114L568 118V0Z" />
<glyph unicode="3" glyph-name="three" horiz-adv-x="630" d="M61 23L63 143Q160 106 270 106Q435 106 435 207Q435 259 403 281T303 303H149V402H300Q357 402 385 425T413 488Q413 574 264 574Q159 574 67 538L65 659Q143 694 273 694Q543 694 543 506Q543 457
518 419T453 360Q505 345 536 303T568 201Q568 -14 279 -14Q146 -14 61 23Z" />
<glyph unicode="4" glyph-name="four" horiz-adv-x="630" d="M494 0H356V171H45V262L355 694H494V284H585V171H494V0ZM356 284L359 518L185 282L356 284Z" />
<glyph unicode="5" glyph-name="five" horiz-adv-x="630" d="M71 20L73 141Q168 108 265 108Q425 108 425 219Q425 245 417 263T398 292T365 307T327 314T280 315H95V680H541V564H226V413Q268 416 301 416Q363 416 405 409T484 382T540 320T559 214Q559 -14 271
-14Q146 -14 71 20Z" />
<glyph unicode="6" glyph-name="six" horiz-adv-x="630" d="M553 659L551 537Q475 574 369 574Q191 572 186 382Q186 381 186 376T187 369Q240 433 353 433Q473 433 522 375T571 216Q571 170 560 132T522 60T445 6T323 -14Q177 -14 118 66T59 309Q59 497 124 595T352
694Q483 694 553 659ZM196 223Q199 167 225 135T321 103Q389 103 413 135T437 220Q437 244 433 261T419 297T384 325T323 335Q204 335 196 223Z" />
<glyph unicode="7" glyph-name="seven" horiz-adv-x="630" d="M286 0H133L446 566L48 564V680H583V601L286 0Z" />
<glyph unicode="8" glyph-name="eight" horiz-adv-x="630" d="M73 694T315 694T557 501Q557 455 535 418T475 361Q523 343 551 297T579 195Q579 96 515 41T315 -14T115 41T50 195Q50 251 78 297T155 361Q118 380 96 417T73 501Q73 694 315 694ZM186 104T315 104T444
208Q444 258 414 282T315 307Q245 307 216 283T186 208Q186 104 315 104ZM379 576T315 576T228 552T205 486Q205 402 315 402T425 486Q425 528 402 552Z" />
<glyph unicode="9" glyph-name="nine" horiz-adv-x="630" d="M77 21L79 143Q155 106 261 106Q439 108 444 298Q444 299 444 304T443 311Q390 247 277 247Q157 247 108 305T59 464Q59 510 70 548T108 620T185 674T307 694Q453 694 512 614T571 371Q571 183 506
85T278 -14Q147 -14 77 21ZM434 457Q431 513 405 545T309 577Q192 577 192 460Q192 436 196 418T211 382T246 355T307 345Q426 345 434 457Z" />
<glyph unicode=":" glyph-name="colon" horiz-adv-x="226" d="M147 -14T113 -14T56 9T32 67T55 124T113 148T170 125T194 67T171 10ZM147 306T113 306T56 329T32 386Q32 420 55 443T113 467T170 444T194 386Q194 353 171 330Z" />
<glyph unicode=";" glyph-name="semicolon" horiz-adv-x="226" d="M107 -125H6L37 126H193L107 -125ZM147 306T113 306T56 329T32 386Q32 420 55 443T113 467T170 444T194 386Q194 353 171 330Z" />
<glyph unicode="&lt;" glyph-name="less" horiz-adv-x="567" d="M522 20L44 241V360L522 581V442L201 300L522 159V20Z" />
<glyph unicode="=" glyph-name="equal" horiz-adv-x="567" d="M522 327H44V459H522V327ZM522 142H44V274H522V142Z" />
<glyph unicode="&gt;" glyph-name="greater" horiz-adv-x="567" d="M522 241L44 20V159L366 300L44 442V581L522 360V241Z" />
<glyph unicode="?" glyph-name="question" horiz-adv-x="503" d="M237 223H153Q137 262 137 293Q137 330 158 355T209 394T270 419T321 449T342 495Q342 533 314 552T204 572Q102 572 20 536V661Q93 694 212 694Q295 694 350 678T431 634T465 578T474 516Q474
463 450 428T390 377T319 347T260 314T235 263Q235 229 237 223ZM205 -14Q171 -14 147 9T123 67T147 124T205 148Q238 148 261 125T285 67T262 10T205 -14Z" />
<glyph unicode="@" glyph-name="at" horiz-adv-x="898" d="M721 -34L722 -110Q608 -149 447 -149Q241 -149 137 -53T32 250T136 553T447 649Q867 649 867 311Q867 41 624 41H558L544 71Q480 29 410 29Q227 29 227 250T410 471Q480 471 544 429L558 459H637V116Q717
116 752 163T787 314Q787 455 706 515T447 576Q271 576 194 500T116 250T193 0T447 -76Q617 -76 721 -34ZM516 153V347Q474 368 438 368Q390 368 373 342T355 250T372 159T438 132Q474 132 516 153Z" />
<glyph unicode="A" glyph-name="A" horiz-adv-x="654" d="M634 0H487L440 150H213L166 0H20L242 686H412L634 0ZM417 250L326 546L236 250H417Z" />
<glyph unicode="B" glyph-name="B" horiz-adv-x="608" d="M326 0H61V680H319Q446 680 498 631T551 492Q551 451 530 416T472 362Q521 346 548 303T575 204Q575 0 326 0ZM194 110H318Q382 110 407 136T433 210Q433 263 407 286T319 310H194V110ZM194 397H315Q411
397 411 483Q411 525 389 547T310 570H194V397Z" />
<glyph unicode="C" glyph-name="C" horiz-adv-x="576" d="M537 142V19Q460 -14 352 -14Q190 -14 118 78T45 340Q46 510 118 602T352 694Q460 694 537 661V538Q448 567 363 567Q187 567 187 340T363 113Q448 113 537 142Z" />
<glyph unicode="D" glyph-name="D" horiz-adv-x="655" d="M293 0H61V680H293Q383 680 446 655T544 582T594 476T610 340T595 205T545 98T447 25T293 0ZM198 117H292Q388 117 427 173T467 340T428 506T292 563H198V117Z" />
<glyph unicode="E" glyph-name="E" horiz-adv-x="581" d="M533 0H61V680H533V561H199V406H499V295H199V120H533V0Z" />
<glyph unicode="F" glyph-name="F" horiz-adv-x="554" d="M199 0H61V680H522V559H199V395H488V279H199V0Z" />
<glyph unicode="G" glyph-name="G" horiz-adv-x="648" d="M588 380V32Q498 -14 352 -14Q45 -14 45 340T359 694Q489 694 575 655V531Q519 551 477 559T372 568Q187 568 187 340Q187 229 227 172T365 115Q422 115 453 126V281H344V380H588Z" />
<glyph unicode="H" glyph-name="H" horiz-adv-x="667" d="M607 0H468V291H199V0H61V680H199V411H468V680H607V0Z" />
<glyph unicode="I" glyph-name="I" horiz-adv-x="280" d="M210 0H71V680H210V0Z" />
<glyph unicode="J" glyph-name="J" horiz-adv-x="398" d="M198 182V680H337V157Q337 -14 120 -14Q60 -14 22 0V121Q61 110 104 110Q198 110 198 182Z" />
<glyph unicode="K" glyph-name="K" horiz-adv-x="638" d="M631 0H454L268 282L198 201L199 0H61V680H199L198 390L434 680H606L357 387L631 0Z" />
<glyph unicode="L" glyph-name="L" horiz-adv-x="531" d="M505 0H61V680H199V121H505V0Z" />
<glyph unicode="M" glyph-name="M" horiz-adv-x="830" d="M770 0H633L643 507L474 83H356L188 507L197 0H61V680H255L415 244L575 680H770V0Z" />
<glyph unicode="N" glyph-name="N" horiz-adv-x="667" d="M607 0H489L192 436L197 0H61V680H178L475 244L471 680H607V0Z" />
<glyph unicode="O" glyph-name="O" horiz-adv-x="680" d="M340 -14Q251 -14 192 11T101 87T58 198T45 340T57 482T101 592T191 668T340 694Q412 694 465 676T550 628T601 552T628 455T635 340T628 225T602 129T550 52T465 4T340 -14ZM340 108Q388 108 418 122T465
169T487 240T493 340T487 439T465 511T419 557T340 572Q249 572 219 517T188 340T218 163T340 108Z" />
<glyph unicode="P" glyph-name="P" horiz-adv-x="597" d="M199 0H61V680H304Q568 680 568 461Q568 241 314 241H199V0ZM199 350H313Q428 350 428 459T313 568H199V350Z" />
<glyph unicode="Q" glyph-name="Q" horiz-adv-x="680" d="M722 -170L212 5Q123 36 84 117T45 340Q45 422 57 482T101 592T191 668T340 694Q412 694 465 676T550 628T601 552T628 455T635 340Q635 215 602 137T491 26V25L722 -41V-170ZM340 108Q388 108 418 122T465
169T487 240T493 340T487 439T465 511T419 557T340 572Q249 572 219 517T188 340T218 163T340 108Z" />
<glyph unicode="R" glyph-name="R" horiz-adv-x="626" d="M605 0H448L322 264L197 263V0H61V680H311Q454 680 512 628T570 471Q570 329 456 288L605 0ZM197 371H319Q381 371 403 395T426 467T404 539T319 564H197V371Z" />
<glyph unicode="S" glyph-name="S" horiz-adv-x="587" d="M41 30V152Q152 108 261 108Q409 108 409 204Q409 248 382 266T291 292Q155 306 98 346T40 483Q40 576 103 635T308 694Q430 694 516 659V535Q426 572 316 572Q178 572 178 482Q178 441 208 426T307 404Q433
390 490 349T548 204Q548 103 481 45T267 -14Q131 -14 41 30Z" />
<glyph unicode="T" glyph-name="T" horiz-adv-x="583" d="M361 0H222V559H29V680H553V559H361V0Z" />
<glyph unicode="U" glyph-name="U" horiz-adv-x="672" d="M479 680H617V225Q617 156 593 107T525 33T436 -3T336 -14T236 -3T147 33T79 107T54 225V680H193V238Q193 110 336 110T479 238V680Z" />
<glyph unicode="V" glyph-name="V" horiz-adv-x="657" d="M402 -6H254L20 680H173L328 170L485 680H637L402 -6Z" />
<glyph unicode="W" glyph-name="W" horiz-adv-x="911" d="M738 -6H586L455 499L325 -6H173L28 680H169L258 187L385 680H525L653 187L741 680H883L738 -6Z" />
<glyph unicode="X" glyph-name="X" horiz-adv-x="653" d="M634 0H474L327 264L180 0H19L228 352L27 680H185L327 426L468 680H625L425 352L634 0Z" />
<glyph unicode="Y" glyph-name="Y" horiz-adv-x="659" d="M400 0H259L261 263L24 680H179L330 387L481 680H635L399 263L400 0Z" />
<glyph unicode="Z" glyph-name="Z" horiz-adv-x="602" d="M574 0H28V83L382 557L48 554V680H562V597L208 123L574 126V0Z" />
<glyph unicode="[" glyph-name="bracketleft" horiz-adv-x="263" d="M237 -166H60V766H237V658H170V-58H237V-166Z" />
<glyph unicode="\" glyph-name="backslash" horiz-adv-x="476" d="M476 -170H333L0 720H144L476 -170Z" />
<glyph unicode="]" glyph-name="bracketright" horiz-adv-x="263" d="M202 -166H26V-58H93V658H26V766H202V-166Z" />
<glyph unicode="^" glyph-name="asciicircum" horiz-adv-x="630" d="M616 313H472L315 557L158 313H14L251 700H379L616 313Z" />
<glyph unicode="_" glyph-name="underscore" horiz-adv-x="294" d="M294 -157H0V-88H294V-157Z" />
<glyph unicode="`" glyph-name="grave" horiz-adv-x="583" d="M339 550H245L166 700H299L339 550Z" />
<glyph unicode="a" glyph-name="a" horiz-adv-x="528" d="M480 0H387L371 34Q300 -14 214 -14Q120 -14 77 29T34 148Q34 226 78 267T228 314L349 321V338Q349 375 327 392T248 409Q159 409 72 378V482Q155 514 266 514Q388 514 434 470T480 337V0ZM348 114V238L242
228Q196 223 177 208T158 159Q158 84 243 84Q296 84 348 114Z" />
<glyph unicode="b" glyph-name="b" horiz-adv-x="561" d="M142 0H50V700H191V482Q252 514 315 514Q427 514 476 450T525 250T476 50T315 -14Q243 -14 159 35L142 0ZM191 383V117Q235 96 287 96Q347 96 366 131T386 250T367 369T287 404Q235 404 191 383Z" />
<glyph unicode="c" glyph-name="c" horiz-adv-x="443" d="M411 121V7Q355 -14 269 -14Q143 -14 89 52T35 250T89 447T269 514Q355 514 411 493V379Q354 396 292 396Q223 396 199 361T174 250T198 139T292 104Q354 104 411 121Z" />
<glyph unicode="d" glyph-name="d" horiz-adv-x="561" d="M370 482V700H510V0H418L402 35Q318 -14 245 -14Q133 -14 84 50T35 250T84 450T245 514Q308 514 370 482ZM370 117V383Q325 404 273 404Q213 404 194 369T174 250T193 131T273 96Q325 96 370 117Z" />
<glyph unicode="e" glyph-name="e" horiz-adv-x="523" d="M473 119V19Q394 -14 275 -14Q143 -14 89 51T35 250Q35 383 90 448T274 514Q343 514 388 495T454 438T483 360T491 260Q491 215 489 203H167Q170 148 194 120T283 92Q395 92 473 119ZM167 297H361Q362
354 345 382T271 411T192 383T167 297Z" />
<glyph unicode="f" glyph-name="f" horiz-adv-x="359" d="M12 396V491L76 498V556Q76 635 120 674T266 714Q285 714 350 704V598Q320 605 289 605Q215 605 215 549V500H341V396H215V0H76V396H12Z" />
<glyph unicode="g" glyph-name="g" horiz-adv-x="561" d="M370 9V51Q309 20 245 20Q136 20 86 82T35 267T85 452T245 514Q323 514 402 465L418 500H510V47Q510 -8 500 -45T465 -113T390 -159T266 -174Q135 -174 59 -142V-27Q148 -69 253 -69Q320 -69 345 -51T370
9ZM370 151V383Q325 404 273 404Q216 404 195 369T174 267Q174 200 195 165T273 129Q326 129 370 151Z" />
<glyph unicode="h" glyph-name="h" horiz-adv-x="551" d="M505 0H364V346Q364 401 293 401Q234 401 190 378V0H50V700H190V482Q247 514 322 514Q421 514 463 471T505 349V0Z" />
<glyph unicode="i" glyph-name="i" horiz-adv-x="259" d="M199 0H60V500H199V0ZM168 552T130 552T70 569T48 619Q48 686 130 686Q168 686 189 669T211 619Q211 587 190 570Z" />
<glyph unicode="j" glyph-name="j" horiz-adv-x="259" d="M-23 -167V-67Q-11 -71 12 -71Q37 -71 48 -60T60 -22V500H199V-29Q199 -102 162 -138T45 -174Q8 -174 -23 -167ZM168 552T130 552T70 569T48 619Q48 686 130 686Q168 686 189 669T211 619Q211 587 190 570Z" />
<glyph unicode="k" glyph-name="k" horiz-adv-x="545" d="M538 0H368L246 196L188 130L190 0H50V700H190L188 308L349 500H515L330 289L538 0Z" />
<glyph unicode="l" glyph-name="l" horiz-adv-x="259" d="M199 0H60V700H199V0Z" />
<glyph unicode="m" glyph-name="m" horiz-adv-x="826" d="M781 0H641V346Q641 401 578 401Q531 401 481 378Q486 363 486 347V0H345V346Q345 401 284 401Q236 401 191 380V0H50V500H142L158 466Q225 514 316 514Q411 514 452 465Q520 514 612 514Q781 514 781 349V0Z" />
<glyph unicode="n" glyph-name="n" horiz-adv-x="551" d="M505 0H364V346Q364 401 293 401Q237 401 191 378V0H50V500H142L159 465Q234 514 322 514Q421 514 463 471T505 349V0Z" />
<glyph unicode="o" glyph-name="o" horiz-adv-x="542" d="M270 -14Q142 -14 89 50T35 250T88 449T270 514Q400 514 453 450T506 250Q506 115 453 51T270 -14ZM270 96Q331 96 350 130T369 250T350 369T270 404Q210 404 191 370T172 250T191 131T270 96Z" />
<glyph unicode="p" glyph-name="p" horiz-adv-x="564" d="M191 -160H50V500H142L159 465Q243 514 315 514Q427 514 476 450T525 250T476 50T315 -14Q252 -14 191 18V-160ZM191 383V117Q235 96 287 96Q347 96 366 131T386 250T367 369T287 404Q235 404 191 383Z" />
<glyph unicode="q" glyph-name="q" horiz-adv-x="561" d="M510 -160H370V18Q308 -14 245 -14Q133 -14 84 50T35 250T84 450T245 514Q318 514 402 465L418 500H510V-160ZM370 117V383Q325 404 273 404Q213 404 194 369T174 250T193 131T273 96Q325 96 370 117Z" />
<glyph unicode="r" glyph-name="r" horiz-adv-x="359" d="M191 0H50V500H142L159 465Q236 510 339 510V385Q245 385 191 358V0Z" />
<glyph unicode="s" glyph-name="s" horiz-adv-x="476" d="M44 15V124Q128 94 215 94Q267 94 286 108T306 151Q306 178 290 191T231 209Q118 218 79 251T39 354Q39 426 89 470T250 514Q348 514 413 488V380Q335 406 253 406Q204 406 186 393T168 353Q168 328 184
316T243 300Q355 291 395 258T436 150Q436 -14 215 -14Q121 -14 44 15Z" />
<glyph unicode="t" glyph-name="t" horiz-adv-x="374" d="M342 101V-3Q304 -14 257 -14Q171 -14 124 25T76 142V396H12V491L76 498V601L216 622V500H350V396H216V159Q216 126 234 111T292 96Q320 96 342 101Z" />
<glyph unicode="u" glyph-name="u" horiz-adv-x="551" d="M501 0H408L392 35Q315 -14 228 -14Q129 -14 88 29T46 151V500H186V154Q186 99 257 99Q314 99 360 122V500H501V0Z" />
<glyph unicode="v" glyph-name="v" horiz-adv-x="518" d="M337 -6H181L8 500H152L259 133L366 500H510L337 -6Z" />
<glyph unicode="w" glyph-name="w" horiz-adv-x="703" d="M585 -6H440L352 358L263 -6H119L11 500H146L204 158L280 500H423L499 158L557 500H692L585 -6Z" />
<glyph unicode="x" glyph-name="x" horiz-adv-x="535" d="M528 0H368L267 178L167 0H7L174 258L15 500H175L267 331L360 500H519L362 258L528 0Z" />
<glyph unicode="y" glyph-name="y" horiz-adv-x="527" d="M281 -160H122L194 15L8 500H162L263 152L369 500H518L335 -2L281 -160Z" />
<glyph unicode="z" glyph-name="z" horiz-adv-x="476" d="M451 0H25V92L265 384L36 383V500H443V408L202 116L451 117V0Z" />
<glyph unicode="{" glyph-name="braceleft" horiz-adv-x="250" d="M223 -166H184Q118 -166 84 -136T53 -43L70 224Q71 238 64 244T40 251H18V349H40Q57 349 64 355T70 376L53 643Q49 706 83 736T184 766H223V658H193Q160 658 163 631L180 376Q183 324 140 300Q183
276 180 224L163 -31Q160 -58 193 -58H223V-166Z" />
<glyph unicode="|" glyph-name="bar" horiz-adv-x="276" d="M209 -170H67V720H209V-170Z" />
<glyph unicode="}" glyph-name="braceright" horiz-adv-x="250" d="M26 -166V-58H55Q89 -58 86 -31L69 224Q66 276 109 300Q66 324 69 376L86 631Q89 658 55 658H26V766H65Q203 766 196 643L179 376Q178 362 185 356T209 349H232V251H209Q192 251 185 245T179
224L196 -43Q203 -166 65 -166H26Z" />
<glyph unicode="~" glyph-name="asciitilde" horiz-adv-x="518" d="M477 365V252Q444 221 373 221Q318 221 252 253T145 286Q112 286 82 275T41 251V364Q54 376 83 385T145 395Q201 395 267 363T373 330Q407 330 437 341T477 365Z" />
</font>
</defs>
</svg>
