<?xml version="1.0" standalone="no"?> <!DOCTYPE svg PUBLIC "-//W3C//DTD SVG 1.0//EN" "http://www.w3.org/TR/2001/REC-SVG-20010904/DTD/svg10.dtd" > <svg xmlns="http://www.w3.org/2000/svg" width="100%" height="100%">
<defs >
<font id="vestassans_heavy" horiz-adv-x="589" ><font-face
    font-family="Vestas Sans Heavy"
    units-per-em="1000"
    panose-1="2 0 0 0 0 0 0 0 0 0"
    ascent="750"
    descent="-250"
    alphabetic="0" />
<missing-glyph horiz-adv-x="850" d="M782 0H68V680H782V0ZM191 614L425 387L659 614H191ZM425 293L191 66H659L425 293ZM475 340L708 114V566L475 340ZM376 340L143 565V114L376 340Z" />
<glyph unicode=" " glyph-name="space" horiz-adv-x="178" />
<glyph unicode="!" glyph-name="exclam" horiz-adv-x="298" d="M225 250H73L15 680H283L225 250ZM200 -18T149 -18T62 16T25 100T61 183T149 218T236 184T273 100T237 17Z" />
<glyph unicode="&quot;" glyph-name="quotedbl" horiz-adv-x="540" d="M225 450H52L15 700H262L225 450ZM487 450H315L277 700H525L487 450Z" />
<glyph unicode="#" glyph-name="numbersign" horiz-adv-x="756" d="M474 0H306L350 141H279L235 0H69L113 141H20L65 285H159L193 395H99L144 539H238L282 680H450L405 539H476L521 680H687L643 539H736L691 395H597L563 285H657L612 141H518L474 0ZM396 285L430
395H360L325 285H396Z" />
<glyph unicode="$" glyph-name="dollar" horiz-adv-x="573" d="M268 0H94L127 83Q53 95 23 107L28 282Q84 261 158 250T281 239Q318 239 318 255Q318 268 299 270Q236 275 199 280T123 296T66 323T35 365T23 428Q23 607 271 607H273L299 680H472L440 596Q509 586
533 577L528 403Q484 419 411 429T292 439Q255 439 255 423Q255 410 274 408Q336 403 372 398T447 383T505 356T537 314T550 250Q550 166 493 119T296 71H293L268 0Z" />
<glyph unicode="%" glyph-name="percent" horiz-adv-x="1071" d="M996 -18T881 -18T708 33T649 195T707 356T881 408T1054 357T1113 195T1055 34ZM866 147T881 147T901 157T907 195T902 233T881 243T861 233T855 195T860 157ZM243 272Q127 272 69 323T10 485T68
646T243 698Q358 698 416 647T475 485T417 324T243 272ZM386 0H232L737 680H891L386 0ZM243 437Q257 437 263 447T269 485T263 523T243 533Q228 533 222 523T216 485T222 447T243 437Z" />
<glyph unicode="&amp;" glyph-name="ampersand" horiz-adv-x="766" d="M745 179V-18Q649 -6 543 41Q439 -18 310 -18Q156 -18 86 35T16 200Q16 305 127 375Q84 450 84 518Q84 598 150 648T339 698Q457 698 517 653T577 540Q577 480 539 445T432 380L381 360Q408
333 446 306Q480 282 511 266Q533 310 533 360Q533 404 529 420H730Q735 399 735 360Q735 273 692 192Q728 182 745 179ZM351 148Q321 170 289 195Q256 222 232 244Q228 232 228 215Q228 145 315 145Q333 145 351 148ZM312 459Q337 471 349 479Q375 497 375 516Q375
545 339 545Q301 545 301 516Q301 485 312 459Z" />
<glyph unicode="&apos;" glyph-name="quotesingle" horiz-adv-x="277" d="M225 450H52L15 700H262L225 450Z" />
<glyph unicode="(" glyph-name="parenleft" horiz-adv-x="351" d="M318 -166H144Q39 24 39 300T144 766H318Q211 567 211 300T318 -166Z" />
<glyph unicode=")" glyph-name="parenright" horiz-adv-x="351" d="M182 -166H7Q114 29 114 300T7 766H182Q287 576 287 300T182 -166Z" />
<glyph unicode="*" glyph-name="asterisk" horiz-adv-x="613" d="M595 414L486 395L562 317L361 172L307 272L253 172L52 317L127 395L19 414L96 639L198 589L183 700H431L415 589L518 639L595 414Z" />
<glyph unicode="+" glyph-name="plus" horiz-adv-x="630" d="M428 31H202V195H31V407H202V571H428V407H598V195H428V31Z" />
<glyph unicode="," glyph-name="comma" horiz-adv-x="298" d="M166 -125H-8L30 200H279L166 -125Z" />
<glyph unicode="-" glyph-name="hyphen" horiz-adv-x="361" d="M338 250H23V420H338V250Z" />
<glyph unicode="." glyph-name="period" horiz-adv-x="298" d="M200 -18T149 -18T62 16T25 100T61 183T149 218T236 184T273 100T237 17Z" />
<glyph unicode="/" glyph-name="slash" horiz-adv-x="577" d="M245 -170H0L333 720H577L245 -170Z" />
<glyph unicode="0" glyph-name="zero" horiz-adv-x="630" d="M278 173T315 173T367 208T383 340T368 471T315 507T263 472T247 340T262 209ZM468 -18T315 -18T97 61T31 340T96 618T314 698T532 618T598 340Q598 141 533 62Z" />
<glyph unicode="1" glyph-name="one" horiz-adv-x="630" d="M579 0H63V158L199 163V500L69 491V629L335 698H441V163L579 158V0Z" />
<glyph unicode="2" glyph-name="two" horiz-adv-x="630" d="M579 0H51V133Q204 241 263 312T323 440Q323 508 239 508Q163 508 72 470L67 653Q162 698 303 698Q369 698 418 685T494 653T537 604T559 548T564 489Q564 338 320 175L579 184V0Z" />
<glyph unicode="3" glyph-name="three" horiz-adv-x="630" d="M47 20L52 203Q147 170 260 170Q365 170 365 226Q365 278 298 278H133V421H292Q349 421 349 464Q349 511 254 511Q195 511 141 501T58 477L52 663Q88 680 154 689T278 698Q560 698 560 504Q560 410
490 361Q583 316 583 211Q583 -18 283 -18Q134 -18 47 20Z" />
<glyph unicode="4" glyph-name="four" horiz-adv-x="630" d="M544 0H308V137H27V288L279 698H544V313H604V137H544V0ZM308 313L311 447L241 311L308 313Z" />
<glyph unicode="5" glyph-name="five" horiz-adv-x="630" d="M48 18L54 208Q152 177 260 177Q309 177 335 188T361 231Q361 283 287 283H67V680H561V497H286V427H311Q364 427 399 424T472 409T532 375T568 314T582 219Q582 -18 276 -18Q127 -18 48 18Z" />
<glyph unicode="6" glyph-name="six" horiz-adv-x="630" d="M583 662L577 474Q498 510 396 510Q253 510 253 412Q253 410 253 407T254 401Q297 435 392 435Q593 435 593 223Q593 -18 322 -18Q172 -18 105 60T37 299Q37 375 45 433T74 542T131 627T222 679T354
698Q505 698 583 662ZM264 232Q266 166 317 166Q367 166 367 231Q367 295 322 295Q290 295 279 279T264 232Z" />
<glyph unicode="7" glyph-name="seven" horiz-adv-x="630" d="M360 0H111L364 502L40 497V680H595V563L360 0Z" />
<glyph unicode="8" glyph-name="eight" horiz-adv-x="630" d="M514 360Q551 339 574 296T598 197Q598 -18 315 -18Q31 -18 31 197Q31 252 54 295T115 360Q49 412 49 499Q49 698 315 698Q582 698 582 499Q582 412 514 360ZM376 226Q376 285 315 285Q255 285 255
226Q255 168 315 168Q376 168 376 226ZM366 421T366 467T315 513Q265 513 265 467T315 421Q366 421 366 467Z" />
<glyph unicode="9" glyph-name="nine" horiz-adv-x="630" d="M47 18L52 206Q133 170 234 170Q377 170 377 268Q377 270 377 273T376 279Q333 245 238 245Q37 245 37 457Q37 698 308 698Q458 698 525 620T593 381Q593 305 585 247T556 138T499 53T408 1T276 -18Q125
-18 47 18ZM366 448Q364 514 313 514T262 449Q262 385 308 385Q340 385 351 401T366 448Z" />
<glyph unicode=":" glyph-name="colon" horiz-adv-x="298" d="M200 -18T149 -18T62 16T25 100T61 183T149 218T236 184T273 100T237 17ZM200 282T149 282T62 316T25 400T61 483T149 518T236 484T273 400T237 317Z" />
<glyph unicode=";" glyph-name="semicolon" horiz-adv-x="298" d="M166 -125H-8L30 200H279L166 -125ZM200 282T149 282T62 316T25 400T61 483T149 518T236 484T273 400T237 317Z" />
<glyph unicode="&lt;" glyph-name="less" horiz-adv-x="630" d="M598 3L31 210V392L598 599V379L314 301L598 223V3Z" />
<glyph unicode="=" glyph-name="equal" horiz-adv-x="630" d="M598 320H31V532H598V320ZM598 70H31V282H598V70Z" />
<glyph unicode="&gt;" glyph-name="greater" horiz-adv-x="630" d="M598 210L31 3V223L316 301L31 379V599L598 392V210Z" />
<glyph unicode="?" glyph-name="question" horiz-adv-x="519" d="M306 250H155Q128 277 128 323Q128 355 152 379T205 414T259 438T283 464Q283 503 203 503Q89 503 10 464V663Q82 698 225 698Q508 698 508 508Q508 457 487 422T435 370T374 342T323 317T301 286Q301
262 306 250ZM282 -18T231 -18T144 16T107 100T143 183T231 218T318 184T355 100T319 17Z" />
<glyph unicode="@" glyph-name="at" horiz-adv-x="908" d="M740 -34L741 -126Q627 -165 457 -165Q16 -165 16 250T457 665Q892 665 892 315Q892 30 637 30H532L519 52Q454 16 390 16Q300 16 251 69T201 250T250 430T390 484Q454 484 519 448L532 470H669V127Q732
126 762 171T793 315Q793 456 714 516T457 576Q280 576 200 500T120 250T200 1T457 -76Q531 -76 611 -65T740 -34ZM476 176V324Q460 331 445 331Q426 331 419 315T412 250T419 186T445 169Q460 169 476 176Z" />
<glyph unicode="A" glyph-name="A" horiz-adv-x="674" d="M671 0H425L405 107H268L248 0H3L163 680H510L671 0ZM377 260L336 499L296 260H377Z" />
<glyph unicode="B" glyph-name="B" horiz-adv-x="637" d="M362 0H33V680H359Q500 680 553 629T606 480Q606 445 589 412T542 361Q580 344 602 306T625 216Q625 114 567 57T362 0ZM262 408H323Q370 408 370 460Q370 511 323 511H262V408ZM262 169H334Q359 169 373
181T387 230T373 278T333 291H262V169Z" />
<glyph unicode="C" glyph-name="C" horiz-adv-x="574" d="M556 211V16Q476 -18 363 -18Q189 -18 105 71T19 340Q20 520 104 609T363 698Q476 698 556 664V469Q469 494 392 494Q329 494 295 459T261 340T295 221T392 186Q468 186 556 211Z" />
<glyph unicode="D" glyph-name="D" horiz-adv-x="661" d="M315 0H33V680H315Q412 680 478 655T579 582T628 475T643 340T629 205T579 99T478 25T315 0ZM272 185H308Q360 185 378 220T397 340T379 459T308 495H272V185Z" />
<glyph unicode="E" glyph-name="E" horiz-adv-x="603" d="M576 0H33V680H576V491H273V433H547V263H273V190H576V0Z" />
<glyph unicode="F" glyph-name="F" horiz-adv-x="583" d="M273 0H33V680H565V486H273V409H535V227H273V0Z" />
<glyph unicode="G" glyph-name="G" horiz-adv-x="660" d="M628 409V35Q529 -18 363 -18Q19 -18 19 340Q19 519 105 608T370 698Q520 698 619 656V461Q511 495 401 495Q325 495 293 457T260 339Q260 254 291 223T396 191V265H334V409H628Z" />
<glyph unicode="H" glyph-name="H" horiz-adv-x="677" d="M644 0H403V254H273V0H33V680H273V443H403V680H644V0Z" />
<glyph unicode="I" glyph-name="I" horiz-adv-x="308" d="M274 0H34V680H274V0Z" />
<glyph unicode="J" glyph-name="J" horiz-adv-x="428" d="M161 236V680H401V178Q401 79 338 31T140 -18Q51 -18 3 4V195Q53 179 99 179Q161 179 161 236Z" />
<glyph unicode="K" glyph-name="K" horiz-adv-x="699" d="M713 0H408L271 270L273 0H33V680H273L271 442L405 680H695L478 378L713 0Z" />
<glyph unicode="L" glyph-name="L" horiz-adv-x="541" d="M531 0H33V680H273V194H531V0Z" />
<glyph unicode="M" glyph-name="M" horiz-adv-x="895" d="M862 0H626L642 391L548 61H346L253 391L269 0H33V680H363L447 311L531 680H862V0Z" />
<glyph unicode="N" glyph-name="N" horiz-adv-x="692" d="M659 0H441L258 305L268 0H33V680H251L434 375L425 680H659V0Z" />
<glyph unicode="O" glyph-name="O" horiz-adv-x="678" d="M415 -18T339 -18T207 -2T115 42T58 116T28 215T19 340T27 464T57 563T115 637T207 682T339 698T471 682T563 638T620 564T650 465T659 340T651 216T621 117T563 43T471 -2ZM294 176T339 176T399 209T415
340T400 471T339 504T279 472T264 340T279 209Z" />
<glyph unicode="P" glyph-name="P" horiz-adv-x="627" d="M273 0H33V680H316Q482 680 550 622T618 446Q618 331 554 271T340 211H273V0ZM273 377H329Q381 377 381 442T329 507H273V377Z" />
<glyph unicode="Q" glyph-name="Q" horiz-adv-x="678" d="M716 -170L196 0Q98 32 59 114T19 340Q19 411 27 464T57 563T115 637T207 682T339 698T471 682T563 638T620 564T650 465T659 340Q659 138 579 57L716 28V-170ZM294 176T339 176T399 209T415 340T400 471T339
504T279 472T264 340T279 209Z" />
<glyph unicode="R" glyph-name="R" horiz-adv-x="652" d="M661 0H392L313 229H268V0H33V680H333Q499 680 564 625T630 453Q630 322 541 270L661 0ZM268 391H334Q360 391 372 404T384 445Q384 499 335 499H268V391Z" />
<glyph unicode="S" glyph-name="S" horiz-adv-x="618" d="M25 35V228Q140 176 274 176Q321 176 342 184T364 214Q364 248 296 255Q218 262 173 272T90 304T38 365T23 466Q23 698 330 698Q480 698 571 660V465Q484 504 350 504Q258 504 258 465Q258 446 275 439T327
429Q403 422 449 411T532 377T584 315T600 214Q600 91 523 37T292 -18Q123 -18 25 35Z" />
<glyph unicode="T" glyph-name="T" horiz-adv-x="606" d="M423 0H183V486H10V680H595V486H423V0Z" />
<glyph unicode="U" glyph-name="U" horiz-adv-x="672" d="M405 258V680H646V239Q646 -18 336 -18T26 239V680H267V258Q267 212 283 196T336 179T389 195T405 258Z" />
<glyph unicode="V" glyph-name="V" horiz-adv-x="682" d="M487 0H195L3 680H265L341 261L418 680H679L487 0Z" />
<glyph unicode="W" glyph-name="W" horiz-adv-x="922" d="M804 0H529L461 381L393 0H118L6 680H245L275 295L344 680H577L647 295L677 680H916L804 0Z" />
<glyph unicode="X" glyph-name="X" horiz-adv-x="703" d="M711 0H435L352 221L269 0H-7L173 356L4 680H279L352 468L424 680H698L530 356L711 0Z" />
<glyph unicode="Y" glyph-name="Y" horiz-adv-x="703" d="M472 0H231L233 262L-2 680H262L352 459L441 680H706L470 262L472 0Z" />
<glyph unicode="Z" glyph-name="Z" horiz-adv-x="609" d="M602 0H7V129L279 481L28 478V680H591V551L319 199L602 202V0Z" />
<glyph unicode="[" glyph-name="bracketleft" horiz-adv-x="295" d="M277 -166H49V766H277V606H211V-6H277V-166Z" />
<glyph unicode="\" glyph-name="backslash" horiz-adv-x="577" d="M577 -170H333L0 720H245L577 -170Z" />
<glyph unicode="]" glyph-name="bracketright" horiz-adv-x="295" d="M246 -166H18V-6H84V606H18V766H246V-166Z" />
<glyph unicode="^" glyph-name="asciicircum" horiz-adv-x="693" d="M680 311H434L346 472L259 311H13L240 701H453L680 311Z" />
<glyph unicode="_" glyph-name="underscore" horiz-adv-x="294" d="M294 -160H0V-80H294V-160Z" />
<glyph unicode="`" glyph-name="grave" horiz-adv-x="561" d="M359 550H202L123 700H319L359 550Z" />
<glyph unicode="a" glyph-name="a" horiz-adv-x="550" d="M531 0H360L343 27Q283 -18 189 -18Q14 -18 14 145Q14 232 61 266T220 309L312 315V332Q312 361 248 361Q144 361 46 322V481Q147 518 294 518Q366 518 413 506T485 469T521 411T531 331V0ZM311 141V223L262
218Q212 212 212 168T257 124Q290 124 311 141Z" />
<glyph unicode="b" glyph-name="b" horiz-adv-x="590" d="M192 0H22V700H264V497Q317 518 371 518Q477 518 529 457T581 250T529 44T371 -18Q292 -18 209 27L192 0ZM264 342V158Q280 149 301 149Q325 149 334 169T343 250T334 331T301 351Q280 351 264 342Z" />
<glyph unicode="c" glyph-name="c" horiz-adv-x="438" d="M421 178V-2Q373 -18 276 -18Q136 -18 73 49T9 250T72 451T276 518Q373 518 421 502V322Q382 333 337 333Q287 333 267 315T247 250T267 186T337 167Q382 167 421 178Z" />
<glyph unicode="d" glyph-name="d" horiz-adv-x="590" d="M568 0H398L381 27Q298 -18 219 -18Q113 -18 61 43T9 250T61 456T219 518Q270 518 327 497V700H568V0ZM327 158V342Q309 351 289 351Q265 351 256 331T247 250T256 169T289 149Q309 149 327 158Z" />
<glyph unicode="e" glyph-name="e" horiz-adv-x="551" d="M529 166V18Q440 -18 294 -18Q137 -18 73 45T9 250Q9 389 75 453T291 518Q367 518 418 499T496 445T532 369T542 273Q542 231 538 196H229Q228 170 246 155T315 140Q423 140 529 166ZM229 296H329Q331
331 322 348T285 365Q254 365 241 349T229 296Z" />
<glyph unicode="f" glyph-name="f" horiz-adv-x="411" d="M295 0H54V336H4V490L54 495V539Q54 631 107 674T283 718Q318 718 348 714T392 706L405 703V544Q378 553 341 553Q295 553 295 523V500H400V336H295V0Z" />
<glyph unicode="g" glyph-name="g" horiz-adv-x="590" d="M327 20V52Q284 32 219 32Q113 32 61 88T9 275T61 462T219 518Q298 518 381 473L398 500H568V87Q568 23 556 -21T512 -103T418 -159T262 -178Q122 -178 37 -145V25Q128 -18 231 -18Q327 -18 327 20ZM327
208V342Q309 351 289 351Q266 351 257 333T247 275T256 217T289 199Q309 199 327 208Z" />
<glyph unicode="h" glyph-name="h" d="M569 0H328V325Q328 343 307 343Q284 343 264 332V0H22V700H264V498Q310 518 380 518Q439 518 478 505T536 464T562 408T569 336V0Z" />
<glyph unicode="i" glyph-name="i" horiz-adv-x="286" d="M264 0H22V500H264V0ZM205 524T143 524T50 544T19 612T50 679T143 700T236 680T267 612T236 545Z" />
<glyph unicode="j" glyph-name="j" horiz-adv-x="286" d="M-46 -169V-18Q-30 -21 -16 -21Q22 -21 22 10V500H264V-9Q264 -97 216 -137T68 -178Q-1 -178 -46 -169ZM205 524T143 524T50 544T19 612Q18 660 47 680T143 700Q205 700 236 680T267 612T236 545Z" />
<glyph unicode="k" glyph-name="k" horiz-adv-x="624" d="M636 0H343L259 199L264 0H22V700H264L259 343L345 500H621L454 273L636 0Z" />
<glyph unicode="l" glyph-name="l" horiz-adv-x="286" d="M264 0H22V700H264V0Z" />
<glyph unicode="m" glyph-name="m" horiz-adv-x="891" d="M875 0H633V325Q633 343 612 343T569 332V0H328V325Q328 343 307 343Q284 343 264 332V0H22V500H192L209 473Q286 518 380 518Q478 518 523 478Q599 518 686 518Q745 518 784 505T842 464T868 408T875 336V0Z" />
<glyph unicode="n" glyph-name="n" d="M569 0H328V325Q328 343 307 343Q284 343 264 332V0H22V500H192L209 473Q286 518 380 518Q439 518 478 505T536 464T562 408T569 336V0Z" />
<glyph unicode="o" glyph-name="o" horiz-adv-x="567" d="M283 -18Q134 -18 72 44T10 250T72 456T283 518Q433 518 494 456T556 250T495 44T283 -18ZM258 150T283 150T316 169T325 250T317 331T283 350T250 331T241 250T249 169Z" />
<glyph unicode="p" glyph-name="p" horiz-adv-x="598" d="M264 -160H22V500H192L209 473Q292 518 371 518Q477 518 529 457T581 250T529 44T371 -18Q319 -18 264 2V-160ZM264 342V158Q280 149 301 149Q325 149 334 169T343 250T334 331T301 351Q280 351 264 342Z" />
<glyph unicode="q" glyph-name="q" horiz-adv-x="590" d="M568 -160H327V2Q269 -18 219 -18Q113 -18 61 43T9 250T61 456T219 518Q298 518 381 473L398 500H568V-160ZM327 158V342Q309 351 289 351Q265 351 256 331T247 250T256 169T289 149Q309 149 327 158Z" />
<glyph unicode="r" glyph-name="r" horiz-adv-x="409" d="M264 0H22V500H192L209 473Q288 509 394 509V312Q358 312 319 305T264 290V0Z" />
<glyph unicode="s" glyph-name="s" horiz-adv-x="496" d="M19 18V185Q123 146 225 146Q261 146 261 165Q261 182 236 184Q143 191 97 206T33 251T16 337Q16 518 264 518Q381 518 460 488V322Q371 354 274 354Q234 354 234 335Q234 318 259 316Q393 307 436 277T480
163Q480 -18 226 -18Q112 -18 19 18Z" />
<glyph unicode="t" glyph-name="t" horiz-adv-x="416" d="M395 161V0Q337 -18 261 -18Q151 -18 103 27T54 161V336H4V490L54 495V593L295 626V500H405V336H295V189Q295 170 305 162T338 154L395 161Z" />
<glyph unicode="u" glyph-name="u" d="M567 0H397L380 27Q303 -18 209 -18Q150 -18 111 -5T53 36T27 92T20 164V500H261V175Q261 157 282 157Q305 157 325 168V500H567V0Z" />
<glyph unicode="v" glyph-name="v" horiz-adv-x="571" d="M426 0H145L-11 500H233L286 203L338 500H582L426 0Z" />
<glyph unicode="w" glyph-name="w" horiz-adv-x="750" d="M674 0H414L375 272L336 0H76L-11 500H214L236 223L267 500H483L513 223L535 500H760L674 0Z" />
<glyph unicode="x" glyph-name="x" horiz-adv-x="613" d="M627 0H356L307 139L257 0H-14L140 259L-8 500H261L307 365L352 500H622L474 259L627 0Z" />
<glyph unicode="y" glyph-name="y" horiz-adv-x="592" d="M373 -160H98L177 15L-11 500H251L297 228L350 500H603L427 -4L373 -160Z" />
<glyph unicode="z" glyph-name="z" horiz-adv-x="529" d="M518 0H12V150L191 314L22 312V500H505V350L325 186L518 188V0Z" />
<glyph unicode="{" glyph-name="braceleft" horiz-adv-x="295" d="M274 -166H201Q128 -166 88 -132T51 -26L66 219Q67 231 57 231H16V369H57Q67 369 66 381L51 626Q47 698 87 732T201 766H274V606H224Q212 606 213 595L228 376Q230 321 191 300Q230 279 228 224L213
5Q212 -6 224 -6H274V-166Z" />
<glyph unicode="|" glyph-name="bar" horiz-adv-x="304" d="M274 -170H30V720H274V-170Z" />
<glyph unicode="}" glyph-name="braceright" horiz-adv-x="295" d="M91 -166H18V-6H68Q80 -6 79 5L64 224Q62 279 101 300Q62 321 64 376L79 595Q80 606 68 606H18V766H91Q164 766 204 732T240 626L226 381Q225 369 235 369H276V231H235Q225 231 226 219L240 -26Q245
-98 205 -132T91 -166Z" />
<glyph unicode="~" glyph-name="asciitilde" horiz-adv-x="525" d="M493 394V222Q483 212 453 204T391 195Q338 195 257 223T130 251Q101 251 71 241T31 222V394Q43 404 72 412T134 421Q187 421 269 393T395 365Q424 365 454 375T493 394Z" />
</font>
</defs>
</svg>
