<?xml version="1.0" standalone="no"?> <!DOCTYPE svg PUBLIC "-//W3C//DTD SVG 1.0//EN" "http://www.w3.org/TR/2001/REC-SVG-20010904/DTD/svg10.dtd" > <svg xmlns="http://www.w3.org/2000/svg" width="100%" height="100%">
<defs >
<font id="vestassans-standard" horiz-adv-x="412" ><font-face
    font-family="Vestas Sans Standard 081107"
    units-per-em="1000"
    panose-1="2 0 0 0 0 0 0 0 0 0"
    ascent="750"
    descent="-250"
    alphabetic="0" />
<missing-glyph horiz-adv-x="850" d="M782 0H68V680H782V0ZM191 614L425 387L659 614H191ZM425 293L191 66H659L425 293ZM475 340L708 114V566L475 340ZM376 340L143 565V114L376 340Z" />
<glyph unicode=" " glyph-name="space" horiz-adv-x="186" />
<glyph unicode="!" glyph-name="exclam" horiz-adv-x="181" d="M74 210L53 680H128L107 210H74ZM48 33Q48 51 60 63T90 75Q109 75 121 63T134 33Q134 16 122 4T90 -9Q73 -9 61 3T48 33Z" />
<glyph unicode="&quot;" glyph-name="quotedbl" horiz-adv-x="330" d="M113 470H82L56 700H139L113 470ZM250 470H218L192 700H275L250 470Z" />
<glyph unicode="#" glyph-name="numbersign" horiz-adv-x="630" d="M367 0H310L362 186H184L133 0H76L128 186H23L40 240H141L197 440H85L102 494H212L263 680H320L268 494H446L497 680H554L502 494H607L590 440H487L432 240H545L528 186H418L367 0ZM376 240L431
440H253L198 240H376Z" />
<glyph unicode="$" glyph-name="dollar" horiz-adv-x="574" d="M214 0H153L187 86Q97 95 63 110V157Q91 147 150 139T264 130Q463 130 463 232Q463 281 423 298T286 323Q160 333 108 358T55 450Q55 597 315 597H327L357 680H418L383 593Q458 584 495 570V523Q413
549 297 549Q203 549 157 527T110 450Q110 431 118 418T139 397T178 384T226 376T289 371Q415 360 466 334T518 233Q518 81 252 81H244L214 0Z" />
<glyph unicode="%" glyph-name="percent" horiz-adv-x="979" d="M170 368T235 368T330 399T361 504T331 608T235 640T139 609T109 504T139 400ZM415 319T235 319T55 504T235 689T415 504ZM270 0H205L710 680H774L270 0ZM744 40Q810 40 840 71T871 176Q871 248
841 280T744 312Q679 312 649 280T618 176Q618 103 648 72T744 40ZM744 -9Q565 -9 565 176T744 361Q924 361 924 176T744 -9Z" />
<glyph unicode="&amp;" glyph-name="ampersand" horiz-adv-x="625" d="M593 52V0Q520 21 451 59Q362 -9 246 -9Q144 -9 86 38T27 184Q27 251 57 294T150 371Q105 459 105 532Q105 597 143 643T268 689Q353 689 388 646T424 539Q424 483 381 443T257 369L219 352Q253
292 289 252Q353 177 442 122Q523 205 523 331Q523 373 513 420H566Q575 383 575 332Q575 189 490 95Q546 66 593 52ZM399 89Q311 144 248 219Q206 268 172 326Q125 300 105 268T84 184Q84 43 246 43Q329 43 399 89ZM197 396L237 413Q303 440 335 468T368 539Q368
639 268 639Q162 639 162 532Q162 469 197 396Z" />
<glyph unicode="&apos;" glyph-name="quotesingle" horiz-adv-x="194" d="M113 470H82L56 700H139L113 470Z" />
<glyph unicode="(" glyph-name="parenleft" horiz-adv-x="281" d="M220 -166H157Q114 -86 84 34T54 300T84 566T157 766H220Q176 685 146 565T115 300T145 35T220 -166Z" />
<glyph unicode=")" glyph-name="parenright" horiz-adv-x="281" d="M124 -166H61Q105 -85 135 35T166 300T136 565T61 766H124Q167 686 197 566T227 300T197 34T124 -166Z" />
<glyph unicode="*" glyph-name="asterisk" horiz-adv-x="375" d="M327 391L274 355L202 476L228 494L327 391ZM102 353L51 391L148 494L174 476L102 353ZM221 700L204 562H173L155 700H221ZM379 545L236 519L227 548L360 606L379 545ZM148 548L140 519L-3 545L17
605L148 548Z" />
<glyph unicode="+" glyph-name="plus" horiz-adv-x="551" d="M290 100H235V273H52V327H235V500H290V327H472V273H290V100Z" />
<glyph unicode="," glyph-name="comma" horiz-adv-x="181" d="M70 -125H29L55 55H130L70 -125Z" />
<glyph unicode="-" glyph-name="hyphen" horiz-adv-x="325" d="M270 273H55V327H270V273Z" />
<glyph unicode="." glyph-name="period" horiz-adv-x="181" d="M90 -9Q73 -9 61 3T48 33Q48 51 60 63T90 75Q109 75 121 63T134 33Q134 16 122 4T90 -9Z" />
<glyph unicode="/" glyph-name="slash" horiz-adv-x="401" d="M65 -170H4L337 720H397L65 -170Z" />
<glyph unicode="0" glyph-name="zero" horiz-adv-x="630" d="M202 41T315 41T467 113T506 340T467 566T315 639T163 567T124 340T163 114ZM376 -9T315 -9T210 6T138 50T94 122T71 218T65 340T71 461T93 557T138 630T210 673T315 689T420 674T492 630T536 558T559
462T565 340T559 219T537 123T492 50T420 7Z" />
<glyph unicode="1" glyph-name="one" horiz-adv-x="630" d="M523 0H111V34L291 41V630L103 609V632L325 689H348V41L523 34V0Z" />
<glyph unicode="2" glyph-name="two" horiz-adv-x="630" d="M559 0H70V37Q254 187 345 274T465 407T493 501Q493 569 453 603T311 638Q211 638 120 604V658Q195 689 310 689Q383 689 433 673T507 628T541 569T551 501Q551 422 471 333T149 52H559V0Z" />
<glyph unicode="3" glyph-name="three" horiz-adv-x="630" d="M74 23V77Q161 43 276 43Q494 43 494 190Q494 267 451 298T308 330H168V382H308Q392 382 430 417T469 510Q469 637 270 637Q165 637 76 602V657Q159 689 270 689Q528 689 528 510Q528 455 497 415T415
360Q482 349 518 304T555 190Q555 -9 276 -9Q149 -9 74 23Z" />
<glyph unicode="4" glyph-name="four" horiz-adv-x="630" d="M456 0H399V201H59V235L414 689H456V252H571V201H456V0ZM399 252L402 596L130 250L399 252Z" />
<glyph unicode="5" glyph-name="five" horiz-adv-x="630" d="M87 21V73Q174 41 266 41Q483 41 483 208Q483 249 471 277T443 319T395 342T338 351T270 353L114 352V680H527V630H171V401Q243 405 290 405Q349 405 391 397T470 369T524 309T543 209Q543 156 527
116T484 52T420 15T346 -4T265 -9Q158 -9 87 21Z" />
<glyph unicode="6" glyph-name="six" horiz-adv-x="630" d="M533 657V603Q465 637 352 637Q134 637 129 352V318Q148 369 200 399T327 429Q397 429 445 410T515 357T546 289T555 210Q555 168 546 133T512 64T441 11T324 -9Q247 -9 197 13T120 80T84 181T74 319Q74
501 137 595T352 689Q465 689 533 657ZM137 214Q139 176 147 148T175 94T232 55T324 41Q367 41 399 51T450 78T480 117T494 162T498 210Q498 245 493 270T471 322T417 363T325 378Q274 378 237 364T179 324T149 272T137 214Z" />
<glyph unicode="7" glyph-name="seven" horiz-adv-x="630" d="M234 0H163L507 630H61V680H568V641L234 0Z" />
<glyph unicode="8" glyph-name="eight" horiz-adv-x="630" d="M90 689T315 689T540 505Q540 454 513 416T434 360Q499 345 532 298T566 190Q566 100 507 46T315 -9Q183 -9 124 45T64 190Q64 251 97 298T196 360Q144 377 117 415T90 505Q90 689 315 689ZM125 41T315
41T505 190Q505 260 462 295T315 331T169 296T125 190Q125 41 315 41ZM411 639T315 639T185 603T150 505Q150 381 315 381T480 505Q480 566 446 602Z" />
<glyph unicode="9" glyph-name="nine" horiz-adv-x="630" d="M97 23V77Q165 43 279 43Q496 44 501 328V361Q482 311 430 281T303 251Q233 251 185 270T114 323T83 391T74 469Q74 511 84 547T118 616T190 669T306 689Q383 689 433 667T510 600T545 499T555 361Q555
179 492 85T279 -9Q165 -9 97 23ZM493 466Q491 504 483 532T455 586T398 625T306 639T216 624T162 583T139 530T132 469T137 410T159 358T213 317T305 302Q356 302 393 316T451 356T481 408T493 466Z" />
<glyph unicode=":" glyph-name="colon" horiz-adv-x="181" d="M90 -9Q73 -9 61 3T48 33Q48 51 60 63T90 75Q109 75 121 63T134 33Q134 16 122 4T90 -9ZM90 333Q73 333 61 345T48 375T60 404T90 417Q109 417 121 405T134 375T122 346T90 333Z" />
<glyph unicode=";" glyph-name="semicolon" horiz-adv-x="181" d="M70 -125H29L55 55H130L70 -125ZM90 333Q73 333 61 345T48 375T60 404T90 417Q109 417 121 405T134 375T122 346T90 333Z" />
<glyph unicode="&lt;" glyph-name="less" horiz-adv-x="551" d="M471 43L53 273V327L471 557V498L111 300L471 102V43Z" />
<glyph unicode="=" glyph-name="equal" horiz-adv-x="551" d="M472 342H52V396H472V342ZM472 204H52V258H472V204Z" />
<glyph unicode="&gt;" glyph-name="greater" horiz-adv-x="551" d="M471 273L53 43V102L414 300L53 498V557L471 327V273Z" />
<glyph unicode="?" glyph-name="question" horiz-adv-x="501" d="M188 200H157Q149 240 149 263Q149 310 174 339T236 382T308 410T370 451T396 521Q396 559 384 582T327 622T204 639Q115 639 33 608V661Q60 672 110 680T203 689Q281 689 333 675T410 636T443
584T452 522Q452 469 425 435T359 384T281 354T215 313T187 244Q187 242 187 222T188 200ZM187 -11Q168 -11 156 1T143 31Q143 48 155 60T187 73Q205 73 217 61T230 31Q230 13 218 1T187 -11Z" />
<glyph unicode="@" glyph-name="at" horiz-adv-x="884" d="M714 -45L715 -96Q599 -133 441 -133Q231 -133 135 -39T39 250T134 538T438 633Q648 633 746 554T844 310Q844 256 833 213T798 131T727 72T616 50H577L565 89Q499 41 421 41Q241 41 241 250T421 459Q499
459 565 411L577 450H610V96H619Q714 96 752 149T791 313Q791 459 710 522T438 585Q251 585 174 505T97 250T175 -4T441 -85Q607 -85 714 -45ZM552 128V372Q486 409 428 409Q354 409 327 370T299 250T326 130T428 91Q486 91 552 128Z" />
<glyph unicode="A" glyph-name="A" horiz-adv-x="626" d="M596 0H533L465 187H161L94 0H30L293 689H333L596 0ZM449 234L313 603L177 234H449Z" />
<glyph unicode="B" glyph-name="B" horiz-adv-x="586" d="M306 0H77V680H298Q515 680 515 504Q515 455 488 416T413 362Q476 349 508 303T541 191Q541 0 306 0ZM133 51H306Q404 51 441 89T479 191Q479 265 442 298T313 332H133V51ZM133 382H312Q455 382 455 504Q455
563 423 596T304 630H133V382Z" />
<glyph unicode="C" glyph-name="C" horiz-adv-x="575" d="M522 73V21Q446 -9 343 -9Q264 -9 208 17T121 91T75 201T61 340T75 479T120 588T208 663T343 689Q446 689 522 659V607Q437 638 343 638Q120 638 120 340T343 42Q437 42 522 73Z" />
<glyph unicode="D" glyph-name="D" horiz-adv-x="643" d="M280 0H77V680H280Q445 680 514 591T583 340T514 89T280 0ZM133 51H281Q412 51 467 125T523 340T468 555T281 630H133V51Z" />
<glyph unicode="E" glyph-name="E" horiz-adv-x="559" d="M499 0H77V680H499V630H133V378H461V328H133V51H499V0Z" />
<glyph unicode="F" glyph-name="F" horiz-adv-x="527" d="M133 0H77V680H487V630H133V378H450V328H133V0Z" />
<glyph unicode="G" glyph-name="G" horiz-adv-x="635" d="M560 350V29Q475 -9 343 -9Q264 -9 208 17T121 91T75 201T61 340Q61 419 75 479T121 588T210 663T349 689Q468 689 543 654V601Q491 622 450 630T349 638Q120 638 120 340T343 42Q444 42 504 64V299H357V350H560Z" />
<glyph unicode="H" glyph-name="H" horiz-adv-x="654" d="M577 0H521V328H133V0H77V680H133V378H521V680H577V0Z" />
<glyph unicode="I" glyph-name="I" horiz-adv-x="245" d="M151 0H95V680H151V0Z" />
<glyph unicode="J" glyph-name="J" horiz-adv-x="368" d="M225 135V680H282V137Q282 -9 99 -9Q60 -9 32 -3V49Q61 42 99 42Q225 42 225 135Z" />
<glyph unicode="K" glyph-name="K" horiz-adv-x="581" d="M561 0H488L221 353L133 263V0H77V680H133V332L455 680H529L257 392L561 0Z" />
<glyph unicode="L" glyph-name="L" horiz-adv-x="515" d="M482 0H77V680H133V51H482V0Z" />
<glyph unicode="M" glyph-name="M" horiz-adv-x="784" d="M708 0H651L656 612L416 94H368L129 612L133 0H77V680H158L392 167L627 680H708V0Z" />
<glyph unicode="N" glyph-name="N" horiz-adv-x="646" d="M569 0H529L132 569L133 0H77V680H117L514 111L513 680H569V0Z" />
<glyph unicode="O" glyph-name="O" horiz-adv-x="674" d="M282 41T337 41T431 56T495 96T532 161T550 242T555 340T551 438T533 519T495 584T432 624T337 639T243 624T180 584T143 519T125 438T120 340T124 242T142 161T179 96T242 56ZM405 -9T337 -9T219 9T139
58T91 135T67 230T61 340T67 450T91 544T138 621T218 670T337 689T455 671T536 622T584 545T608 450T614 340T608 230T584 136T536 59T456 10Z" />
<glyph unicode="P" glyph-name="P" horiz-adv-x="571" d="M133 0H77V680H299Q422 680 476 623T531 476Q531 385 477 329T299 272H133V0ZM133 322H304Q471 322 471 476T304 630H133V322Z" />
<glyph unicode="Q" glyph-name="Q" horiz-adv-x="674" d="M724 -158L223 8Q139 36 100 116T61 340Q61 402 67 450T91 544T138 621T218 670T337 689T455 671T536 622T584 545T608 450T614 340Q614 239 597 172T533 58T406 -1L404 -2Q402 -2 401 -2L724 -100V-158ZM282
41T337 41T431 56T495 96T532 161T550 242T555 340T551 438T533 519T495 584T432 624T337 639T243 624T180 584T143 519T125 438T120 340T124 242T142 161T179 96T242 56Z" />
<glyph unicode="R" glyph-name="R" horiz-adv-x="601" d="M561 0H496L334 298L133 297V0H77V680H302Q428 680 478 631T529 488Q529 413 498 368T390 306L561 0ZM133 348H312Q404 348 436 384T468 488T436 592T312 629H133V348Z" />
<glyph unicode="S" glyph-name="S" horiz-adv-x="567" d="M52 26V78Q160 42 251 42Q455 42 455 193Q455 262 419 290T288 329Q164 342 110 380T56 500Q56 536 67 567T103 626T179 672T298 689Q407 689 481 658V605Q395 638 297 638Q193 638 153 602T113 499Q113
435 153 412T293 378Q408 365 461 325T515 193Q515 155 502 122T461 58T379 9T250 -9Q203 -9 145 1T52 26Z" />
<glyph unicode="T" glyph-name="T" horiz-adv-x="556" d="M306 0H250V630H36V680H520V630H306V0Z" />
<glyph unicode="U" glyph-name="U" horiz-adv-x="664" d="M537 680H592V214Q592 150 570 104T508 35T426 1T332 -9Q282 -9 239 1T157 34T94 104T71 214V680H128V221Q128 166 145 129T195 73T259 49T332 42T405 48T470 73T519 128T537 221V680Z" />
<glyph unicode="V" glyph-name="V" horiz-adv-x="626" d="M333 -9H293L30 680H94L313 77L533 680H596L333 -9Z" />
<glyph unicode="W" glyph-name="W" horiz-adv-x="877" d="M672 -9H616L438 610L261 -9H206L38 680H99L235 79L408 680H469L642 79L778 680H840L672 -9Z" />
<glyph unicode="X" glyph-name="X" horiz-adv-x="600" d="M568 0H502L300 308L99 0H33L265 347L38 680H103L300 382L498 680H562L336 347L568 0Z" />
<glyph unicode="Y" glyph-name="Y" horiz-adv-x="619" d="M339 0H280L281 265L37 680H102L309 317L517 680H582L338 265L339 0Z" />
<glyph unicode="Z" glyph-name="Z" horiz-adv-x="590" d="M551 0H39V37L464 631L59 629V680H537V643L112 49L551 51V0Z" />
<glyph unicode="[" glyph-name="bracketleft" horiz-adv-x="241" d="M214 -166H74V766H214V712H133V-112H214V-166Z" />
<glyph unicode="\" glyph-name="backslash" horiz-adv-x="401" d="M397 -170H337L4 720H65L397 -170Z" />
<glyph unicode="]" glyph-name="bracketright" horiz-adv-x="241" d="M167 -166H27V-112H109V712H27V766H167V-166Z" />
<glyph unicode="^" glyph-name="asciicircum" horiz-adv-x="575" d="M549 346H489L290 640L91 346H31L263 700H317L549 346Z" />
<glyph unicode="_" glyph-name="underscore" horiz-adv-x="294" d="M294 -156H0V-107H294V-156Z" />
<glyph unicode="`" glyph-name="grave" horiz-adv-x="593" d="M317 550H276L204 700H276L317 550Z" />
<glyph unicode="a" glyph-name="a" horiz-adv-x="512" d="M444 0H410L398 42Q325 -9 232 -9Q136 -9 92 35T48 148Q48 292 234 303L386 313V345Q386 407 357 433T248 459Q168 459 92 435V483Q157 509 248 509Q359 509 401 467T444 343V0ZM386 84V273L229 259Q108
248 108 148Q108 41 234 41Q308 41 386 84Z" />
<glyph unicode="b" glyph-name="b" horiz-adv-x="545" d="M103 0H69V700H128V465Q198 509 279 509Q397 509 444 443T491 250T444 57T279 -9Q201 -9 115 42L103 0ZM128 422V78Q197 41 279 41Q328 41 359 56T406 101T427 166T433 250T428 334T407 398T360 444T279
459Q197 459 128 422Z" />
<glyph unicode="c" glyph-name="c" horiz-adv-x="451" d="M407 63V15Q347 -9 266 -9Q148 -9 101 57T54 250T101 443T266 509Q346 509 407 485V437Q334 459 265 459Q217 459 186 445T139 400T118 335T112 250T117 165T138 101T185 56T265 41Q334 41 407 63Z" />
<glyph unicode="d" glyph-name="d" horiz-adv-x="545" d="M417 465V700H475V0H442L429 42Q345 -9 265 -9Q148 -9 101 57T54 250T101 443T265 509Q347 509 417 465ZM417 78V422Q348 459 265 459Q217 459 186 444T139 399T118 334T112 250T117 166T138 102T185 56T265
41Q348 41 417 78Z" />
<glyph unicode="e" glyph-name="e" horiz-adv-x="509" d="M265 -9Q148 -9 101 57T54 250T101 443T265 509Q316 509 352 496T409 461T441 403T456 333T459 250V224H112Q115 133 146 87T265 41Q365 41 436 69V20Q365 -9 265 -9ZM112 270H400Q400 307 399 328T390
378T370 422T330 448T265 459Q177 459 146 412T112 270Z" />
<glyph unicode="f" glyph-name="f" horiz-adv-x="330" d="M23 455V493L96 500V576Q96 642 132 675T254 709Q285 709 310 704V653Q286 659 254 659Q202 659 178 639T153 575V500H299V455H153V0H96V455H23Z" />
<glyph unicode="g" glyph-name="g" horiz-adv-x="545" d="M417 -4V55Q340 11 265 11Q151 11 103 76T54 260T102 443T265 509Q354 509 429 457L442 500H475V7Q475 -84 432 -126T270 -169Q144 -169 76 -139V-84Q162 -121 270 -121Q354 -121 385 -93T417 -4ZM417
98V422Q348 459 265 459Q218 459 187 444T140 398T118 336T112 260T118 185T139 122T186 77T265 61Q348 61 417 98Z" />
<glyph unicode="h" glyph-name="h" horiz-adv-x="527" d="M463 0H405V365Q405 417 375 438T286 459Q191 459 127 422V0H69V700H127V465Q195 509 286 509Q378 509 420 473T463 363V0Z" />
<glyph unicode="i" glyph-name="i" horiz-adv-x="225" d="M141 0H85V500H141V0ZM131 583T113 583T82 595T69 625T82 654T113 667T143 655T156 625T144 596Z" />
<glyph unicode="j" glyph-name="j" horiz-adv-x="225" d="M-12 -164V-117Q6 -122 27 -122Q58 -122 71 -108T85 -58V500H141V-55Q141 -112 114 -140T27 -169Q6 -169 -12 -164ZM131 583T113 583T82 595T69 625T82 654T113 667T143 655T156 625T144 596Z" />
<glyph unicode="k" glyph-name="k" horiz-adv-x="487" d="M467 0H398L198 263L127 195V0H69V700H127V264L363 500H437L234 301L467 0Z" />
<glyph unicode="l" glyph-name="l" horiz-adv-x="225" d="M141 0H85V700H141V0Z" />
<glyph unicode="m" glyph-name="m" horiz-adv-x="805" d="M742 0H684V366Q684 418 657 438T578 459Q499 459 426 420Q434 399 434 363V0H376V366Q376 418 349 438T270 459Q192 459 127 424V0H68V500H101L113 459Q179 509 274 509Q374 509 411 452Q482 509 582
509Q742 509 742 363V0Z" />
<glyph unicode="n" glyph-name="n" horiz-adv-x="525" d="M462 0H403V365Q403 417 374 438T284 459Q193 459 127 422V0H68V500H101L114 457Q189 509 284 509Q376 509 419 473T462 363V0Z" />
<glyph unicode="o" glyph-name="o" horiz-adv-x="530" d="M382 -9T265 -9T101 57T54 250T101 443T265 509T429 443T476 250T429 57ZM265 41Q357 41 387 93T418 250T388 406T265 459Q217 459 186 444T139 399T118 334T112 250T117 166T138 102T185 56T265 41Z" />
<glyph unicode="p" glyph-name="p" horiz-adv-x="545" d="M128 -160H69V500H103L115 458Q201 509 279 509Q397 509 444 443T491 250T444 57T279 -9Q198 -9 128 35V-160ZM128 422V78Q197 41 279 41Q328 41 359 56T406 101T427 166T433 250T428 334T407 398T360
444T279 459Q197 459 128 422Z" />
<glyph unicode="q" glyph-name="q" horiz-adv-x="545" d="M475 -160H417V35Q347 -9 265 -9Q148 -9 101 57T54 250T101 443T265 509Q345 509 429 458L442 500H475V-160ZM417 78V422Q348 459 265 459Q217 459 186 444T139 399T118 334T112 250T117 166T138 102T185
56T265 41Q348 41 417 78Z" />
<glyph unicode="r" glyph-name="r" horiz-adv-x="325" d="M127 0H68V500H101L114 457Q189 509 299 509V457Q195 457 127 420V0Z" />
<glyph unicode="s" glyph-name="s" horiz-adv-x="461" d="M61 14V63Q134 41 207 41Q288 41 319 67T350 137Q350 182 325 206T229 236Q132 244 95 277T58 369Q58 430 102 469T243 509Q329 509 384 487V437Q318 459 242 459Q168 459 141 437T113 369Q113 328 138
309T233 282Q329 273 368 239T407 138Q407 -9 206 -9Q125 -9 61 14Z" />
<glyph unicode="t" glyph-name="t" horiz-adv-x="349" d="M299 42V-4Q277 -9 247 -9Q176 -9 136 22T96 117V455H23V493L96 500V606L154 614V500H310V455H154V124Q154 79 176 59T251 38Q271 38 299 42Z" />
<glyph unicode="u" glyph-name="u" horiz-adv-x="525" d="M457 0H424L411 43Q336 -9 240 -9Q148 -9 106 27T63 137V500H121V135Q121 83 151 62T240 41Q332 41 398 78V500H457V0Z" />
<glyph unicode="v" glyph-name="v" horiz-adv-x="480" d="M268 -9H212L21 500H82L240 62L398 500H459L268 -9Z" />
<glyph unicode="w" glyph-name="w" horiz-adv-x="676" d="M525 -9H472L338 440L205 -9H152L25 500H85L180 84L301 500H375L496 84L592 500H652L525 -9Z" />
<glyph unicode="x" glyph-name="x" horiz-adv-x="474" d="M455 0H386L237 219L88 0H20L201 257L30 500H100L237 295L375 500H443L273 257L455 0Z" />
<glyph unicode="y" glyph-name="y" horiz-adv-x="480" d="M208 -160H144L212 12L21 500H85L240 73L395 500H459L266 1L208 -160Z" />
<glyph unicode="z" glyph-name="z" horiz-adv-x="441" d="M408 0H33V36L331 453L46 452V500H401V464L103 47L408 48V0Z" />
<glyph unicode="{" glyph-name="braceleft" horiz-adv-x="225" d="M192 -166H178Q119 -166 90 -141T65 -62L84 226Q86 251 74 262T32 273H22V327H32Q62 327 74 338T84 374L65 662Q61 715 90 740T178 766H192V712H178Q149 712 136 701T125 666L144 377Q147 324
98 300Q147 276 144 223L125 -66Q123 -89 136 -100T178 -112H192V-166Z" />
<glyph unicode="|" glyph-name="bar" horiz-adv-x="250" d="M155 -170H95V720H155V-170Z" />
<glyph unicode="}" glyph-name="braceright" horiz-adv-x="225" d="M33 -166V-112H47Q77 -112 90 -101T101 -66L82 223Q79 276 128 300Q79 324 82 377L101 666Q103 690 90 701T47 712H33V766H47Q106 766 135 741T161 662L142 374Q140 349 152 338T194 327H204V273H194Q164
273 152 262T142 226L161 -62Q165 -115 136 -140T47 -166H33Z" />
<glyph unicode="~" glyph-name="asciitilde" horiz-adv-x="514" d="M467 335V282Q428 247 361 247Q317 247 283 265T219 302T155 321Q120 321 91 308T47 281V334Q86 369 153 369Q197 369 231 351T295 314T359 295Q395 295 424 308T467 335Z" />
</font>
</defs>
</svg>
