<?xml version="1.0" standalone="no"?> <!DOCTYPE svg PUBLIC "-//W3C//DTD SVG 1.0//EN" "http://www.w3.org/TR/2001/REC-SVG-20010904/DTD/svg10.dtd" > <svg xmlns="http://www.w3.org/2000/svg" width="100%" height="100%">
<defs >
<font id="vestassans-medium" horiz-adv-x="420" ><font-face
    font-family="Vestas Sans Medium 081107"
    units-per-em="1000"
    panose-1="0 0 0 0 0 0 0 0 0 0"
    ascent="750"
    descent="-250"
    alphabetic="0" />
<missing-glyph horiz-adv-x="850" d="M782 0H68V680H782V0ZM191 614L425 387L659 614H191ZM425 293L191 66H659L425 293ZM475 340L708 114V566L475 340ZM376 340L143 565V114L376 340Z" />
<glyph unicode=" " glyph-name="space" horiz-adv-x="178" />
<glyph unicode="!" glyph-name="exclam" horiz-adv-x="202" d="M69 220L37 680H165L133 220H69ZM35 27T35 55T54 102T101 121T148 102T168 55T149 8T101 -12T54 7Z" />
<glyph unicode="&quot;" glyph-name="quotedbl" horiz-adv-x="385" d="M141 465H74L41 700H174L141 465ZM311 465H245L211 700H344L311 465Z" />
<glyph unicode="#" glyph-name="numbersign" horiz-adv-x="655" d="M394 0H304L352 170H207L159 0H69L118 170H21L47 256H141L189 424H86L112 510H213L261 680H352L303 510H448L496 680H586L537 510H634L609 424H513L465 256H569L543 170H442L394 0ZM376 256L424
424H278L231 256H376Z" />
<glyph unicode="$" glyph-name="dollar" horiz-adv-x="567" d="M226 0H130L164 85Q81 96 54 108L55 195Q87 183 149 174T264 164Q418 164 418 239Q418 274 388 287T284 306Q153 316 100 344T46 443Q46 601 307 601L335 680H432L398 594Q463 585 495 573L494 487Q410
515 292 515Q219 515 184 499T148 442Q148 411 179 400T284 384Q414 373 467 345T520 239T454 120T255 77L226 0Z" />
<glyph unicode="%" glyph-name="percent" horiz-adv-x="1005" d="M961 -12T771 -12T581 180T771 372T961 180ZM720 74T771 74T844 98T866 180T844 261T771 286T699 262T676 180T698 99ZM234 308Q44 308 44 500T234 692Q425 692 425 500T234 308ZM298 0H202L707
680H802L298 0ZM183 394T234 394T307 418T329 500Q329 558 307 582T234 606T161 582T139 500Q139 443 161 419Z" />
<glyph unicode="&amp;" glyph-name="ampersand" horiz-adv-x="653" d="M623 92V-4Q552 12 472 52Q376 -12 259 -12Q20 -12 20 189Q20 250 49 293T141 372Q98 458 98 529Q98 597 143 644T282 692T416 648T458 538Q458 435 304 369Q297 367 281 360T262 351Q289
308 328 267Q382 210 456 166Q520 235 520 337Q520 384 511 420H605Q613 385 613 338Q613 210 541 123Q589 102 623 92ZM381 106Q304 157 255 210Q211 258 184 298Q150 276 136 252T121 192Q121 76 260 76Q321 76 381 106ZM226 416Q227 417 246 425T267 435Q361
474 361 532Q361 608 282 608Q199 608 199 528Q199 475 226 416Z" />
<glyph unicode="&apos;" glyph-name="quotesingle" horiz-adv-x="215" d="M141 465H74L41 700H174L141 465Z" />
<glyph unicode="(" glyph-name="parenleft" horiz-adv-x="305" d="M251 -166H153Q110 -86 80 33T49 300T79 566T153 766H251Q207 685 177 565T146 300T176 35T251 -166Z" />
<glyph unicode=")" glyph-name="parenright" horiz-adv-x="305" d="M148 -166H49Q93 -86 123 34T154 300T124 566T49 766H148Q190 686 220 567T250 300T220 34T148 -166Z" />
<glyph unicode="*" glyph-name="asterisk" horiz-adv-x="421" d="M378 376L285 308L214 434L275 480L378 376ZM137 306L46 377L147 480L208 434L137 306ZM248 559H174L153 700H269L248 559ZM422 508L277 484L254 557L388 619L422 508ZM145 484L-1 508L34 618L167
557L145 484Z" />
<glyph unicode="+" glyph-name="plus" horiz-adv-x="546" d="M323 83H223V249H48V351H223V517H323V351H497V249H323V83Z" />
<glyph unicode="," glyph-name="comma" horiz-adv-x="202" d="M88 -125H11L40 99H165L88 -125Z" />
<glyph unicode="-" glyph-name="hyphen" horiz-adv-x="332" d="M286 263H46V354H286V263Z" />
<glyph unicode="." glyph-name="period" horiz-adv-x="202" d="M129 -12T101 -12T54 7T35 55T54 102T101 121T148 102T168 55T149 8Z" />
<glyph unicode="/" glyph-name="slash" horiz-adv-x="443" d="M111 -170H0L333 720H443L111 -170Z" />
<glyph unicode="0" glyph-name="zero" horiz-adv-x="630" d="M223 82T315 82T438 143T470 340Q470 475 439 536T315 598T192 537T160 340Q160 204 191 143ZM463 -12T315 -12T112 72T57 340T112 608T315 692Q462 692 517 608T573 340Q573 156 518 72Z" />
<glyph unicode="1" glyph-name="one" horiz-adv-x="630" d="M537 0H99V69L265 78V589L96 576V630L325 692H371V78L537 69V0Z" />
<glyph unicode="2" glyph-name="two" horiz-adv-x="630" d="M564 0H65V67Q231 195 317 278T426 402T449 486Q449 541 416 569T298 598Q206 598 114 561L113 656Q194 692 310 692Q555 692 555 498Q555 419 480 333T198 91L564 93V0Z" />
<glyph unicode="3" glyph-name="three" horiz-adv-x="630" d="M66 24L67 120Q166 82 274 82Q458 82 458 200Q458 260 421 286T304 312H155V395H303Q370 395 402 423T435 496Q435 598 268 598Q167 598 70 560L69 657Q148 692 272 692Q537 692 537 506Q537 457 510
418T441 360Q496 346 529 302T563 197Q563 -12 277 -12Q149 -12 66 24Z" />
<glyph unicode="4" glyph-name="four" horiz-adv-x="630" d="M477 0H372V184H51V253L381 692H477V274H578V184H477V0ZM372 274L375 544L166 272L372 274Z" />
<glyph unicode="5" glyph-name="five" horiz-adv-x="630" d="M78 21L80 116Q170 83 266 83Q447 83 447 214Q447 246 438 268T415 301T377 319T332 326T277 328H105V680H534V588H206V408Q242 412 298 412Q345 412 380 408T449 391T504 356T538 298T551 211Q551
-12 269 -12Q151 -12 78 21Z" />
<glyph unicode="6" glyph-name="six" horiz-adv-x="630" d="M543 657L542 561Q466 598 360 598Q264 597 215 538T164 370V357Q220 432 340 432Q406 432 452 414T521 363T553 295T563 214Q563 170 553 133T517 62T443 8T324 -12Q178 -12 122 68T66 313Q66 498 131
595T352 692Q477 692 543 657ZM174 220Q177 155 208 118T323 80Q366 80 395 92T437 125T456 168T461 216T457 263T439 305T397 338T324 350Q246 350 212 313T174 220Z" />
<glyph unicode="7" glyph-name="seven" horiz-adv-x="630" d="M262 0H140L473 590L51 588V680H579V615L262 0Z" />
<glyph unicode="8" glyph-name="eight" horiz-adv-x="630" d="M193 692T315 692T493 641T549 501Q549 456 526 419T462 361Q515 344 544 298T573 194Q573 99 511 44T315 -12T119 43T57 194Q57 251 86 297T168 361Q127 381 104 418T81 501Q81 589 137 640ZM315
80Q466 80 466 201Q466 259 432 287T315 315T198 287T163 201Q163 80 315 80ZM392 600T315 600T212 571T185 493Q185 395 315 395T445 493Q445 542 419 571Z" />
<glyph unicode="9" glyph-name="nine" horiz-adv-x="630" d="M87 23L88 119Q164 82 270 82Q366 83 415 142T466 310V323Q410 248 290 248Q224 248 178 266T108 317T76 385T66 466Q66 501 72 531T94 591T137 643T206 678T306 692Q452 692 507 612T563 367Q563 182
499 85T278 -12Q153 -12 87 23ZM456 460Q453 525 422 562T307 600Q264 600 235 588T193 555T174 512T169 464T173 417T191 375T233 342T306 330Q384 330 418 367T456 460Z" />
<glyph unicode=":" glyph-name="colon" horiz-adv-x="202" d="M129 -12T101 -12T54 7T35 55T54 102T101 121T148 102T168 55T149 8ZM129 314T101 314T54 333T35 381T54 428T101 448T148 429T168 381T149 334Z" />
<glyph unicode=";" glyph-name="semicolon" horiz-adv-x="202" d="M88 -125H11L40 99H165L88 -125ZM129 314T101 314T54 333T35 381T54 428T101 448T148 429T168 381T149 334Z" />
<glyph unicode="&lt;" glyph-name="less" horiz-adv-x="546" d="M497 26L48 253V347L497 574V465L163 300L497 135V26Z" />
<glyph unicode="=" glyph-name="equal" horiz-adv-x="546" d="M497 330H48V432H497V330ZM497 169H48V271H497V169Z" />
<glyph unicode="&gt;" glyph-name="greater" horiz-adv-x="546" d="M497 253L48 26V135L383 300L48 465V574L497 347V253Z" />
<glyph unicode="?" glyph-name="question" horiz-adv-x="498" d="M214 212H153Q140 257 140 282Q140 323 163 350T218 391T283 417T338 451T361 507Q361 537 351 554T306 584T205 597Q109 597 23 562V660Q98 692 208 692Q289 692 342 677T420 635T453 581T462
519Q462 466 437 432T375 380T301 350T239 313T213 255Q213 214 214 212ZM224 -12T196 -12T149 7T129 55T148 102T196 121T243 102T262 55T243 8Z" />
<glyph unicode="@" glyph-name="at" horiz-adv-x="895" d="M715 -34L716 -103Q602 -142 444 -142Q239 -142 138 -48T37 250T138 547T444 642Q858 642 858 310Q858 45 620 45H566L552 78Q488 34 416 34Q235 34 235 250T416 466Q488 466 552 422L566 455H627V112Q712
112 748 161T785 313Q785 454 704 515T444 576Q268 576 192 501T115 250T191 0T444 -76Q611 -76 715 -34ZM530 144V356Q476 382 435 382Q378 382 357 352T336 250T357 149T435 118Q476 118 530 144Z" />
<glyph unicode="A" glyph-name="A" horiz-adv-x="647" d="M621 0H508L452 166H194L138 0H25L268 688H379L621 0ZM431 246L323 564L216 246H431Z" />
<glyph unicode="B" glyph-name="B" horiz-adv-x="598" d="M314 0H70V680H305Q532 680 532 496Q532 453 510 417T448 363Q501 347 529 302T558 199Q558 0 314 0ZM172 88H313Q390 88 419 119T448 203Q448 263 418 290T314 317H172V88ZM172 393H313Q425 393 425 491Q425
538 400 565T306 592H172V393Z" />
<glyph unicode="C" glyph-name="C" horiz-adv-x="576" d="M531 117V20Q455 -12 348 -12Q54 -12 54 340T348 692Q455 692 531 660V563Q445 594 354 594Q163 594 163 340T354 86Q445 86 531 117Z" />
<glyph unicode="D" glyph-name="D" horiz-adv-x="653" d="M285 0H70V680H285Q373 680 435 655T533 583T583 476T599 340T584 204T533 98T436 25T285 0ZM174 92H286Q396 92 443 156T490 340T443 523T286 588H174V92Z" />
<glyph unicode="E" glyph-name="E" horiz-adv-x="574" d="M518 0H70V680H518V587H174V396H483V308H174V93H518V0Z" />
<glyph unicode="F" glyph-name="F" horiz-adv-x="545" d="M174 0H70V680H507V586H174V390H473V299H174V0Z" />
<glyph unicode="G" glyph-name="G" horiz-adv-x="644" d="M575 369V30Q484 -12 348 -12Q54 -12 54 340T356 692Q481 692 561 654V558Q503 578 463 586T362 595Q162 595 162 340Q162 220 206 154T354 87Q430 87 472 101V287H347V369H575Z" />
<glyph unicode="H" glyph-name="H" horiz-adv-x="664" d="M595 0H490V305H174V0H70V680H174V398H490V680H595V0Z" />
<glyph unicode="I" glyph-name="I" horiz-adv-x="271" d="M188 0H84V680H188V0Z" />
<glyph unicode="J" glyph-name="J" horiz-adv-x="388" d="M210 162V680H315V149Q315 -12 114 -12Q61 -12 28 -1V94Q64 84 105 84Q210 84 210 162Z" />
<glyph unicode="K" glyph-name="K" horiz-adv-x="618" d="M604 0H470L249 315L173 231L174 0H70V680H174L173 370L443 680H577L317 391L604 0Z" />
<glyph unicode="L" glyph-name="L" horiz-adv-x="528" d="M497 0H70V680H174V94H497V0Z" />
<glyph unicode="M" glyph-name="M" horiz-adv-x="809" d="M740 0H636L644 550L449 91H360L166 550L173 0H70V680H219L405 220L590 680H740V0Z" />
<glyph unicode="N" glyph-name="N" horiz-adv-x="659" d="M589 0H505L170 485L173 0H70V680H154L489 195L487 680H589V0Z" />
<glyph unicode="O" glyph-name="O" horiz-adv-x="681" d="M285 82T341 82T433 99T487 154T512 233T519 340T513 446T488 526T433 580T341 598T249 581T195 526T170 447T163 340T169 234T194 154T249 100ZM341 -12Q254 -12 196 14T107 92T66 201T54 340T65 478T107
588T195 665T341 692Q411 692 462 674T545 625T595 548T620 452T627 340T621 228T596 133T546 56T463 7T341 -12Z" />
<glyph unicode="P" glyph-name="P" horiz-adv-x="587" d="M174 0H70V680H300Q433 680 492 622T552 466Q552 370 494 312T305 253H174V0ZM174 340H307Q443 340 443 465Q443 591 307 591H174V340Z" />
<glyph unicode="Q" glyph-name="Q" horiz-adv-x="681" d="M724 -170L217 7Q131 37 93 118T54 340Q54 420 65 478T107 588T195 665T341 692Q411 692 462 674T545 625T595 548T620 452T627 340Q627 205 590 124T462 14V13L724 -67V-170ZM285 82T341 82T433 99T487
154T512 233T519 340T513 446T488 526T433 580T341 598T249 581T195 526T170 447T163 340T169 234T194 154T249 100Z" />
<glyph unicode="R" glyph-name="R" horiz-adv-x="618" d="M586 0H466L325 277L173 276V0H70V680H304Q439 680 494 629T550 477Q550 333 427 294L586 0ZM173 363H314Q388 363 414 392T440 475T414 558T314 588H173V363Z" />
<glyph unicode="S" glyph-name="S" horiz-adv-x="577" d="M47 28V124Q153 83 256 83Q424 83 424 200Q424 254 394 276T289 306Q160 320 103 359T46 489Q46 575 105 633T301 692Q420 692 497 658V562Q407 597 304 597Q218 597 185 568T151 488Q151 438 185 421T300
395Q418 382 474 340T531 200Q531 107 467 48T259 -12Q204 -12 144 -1T47 28Z" />
<glyph unicode="T" glyph-name="T" horiz-adv-x="575" d="M340 0H235V586H36V680H539V586H340V0Z" />
<glyph unicode="U" glyph-name="U" horiz-adv-x="672" d="M503 680H608V220Q608 166 591 124T548 57T484 16T412 -6T336 -12T261 -6T188 16T125 57T81 124T64 220V680H169V231Q169 84 336 84T503 231V680Z" />
<glyph unicode="V" glyph-name="V" horiz-adv-x="648" d="M374 -8H274L25 680H142L324 136L507 680H623L374 -8Z" />
<glyph unicode="W" glyph-name="W" horiz-adv-x="907" d="M716 -8H605L453 543L302 -8H191L35 680H144L252 146L399 680H507L655 146L763 680H872L716 -8Z" />
<glyph unicode="X" glyph-name="X" horiz-adv-x="636" d="M609 0H487L318 281L150 0H28L247 350L34 680H154L318 410L482 680H601L390 350L609 0Z" />
<glyph unicode="Y" glyph-name="Y" horiz-adv-x="645" d="M376 0H269L270 263L33 680H151L322 360L494 680H612L375 263L376 0Z" />
<glyph unicode="Z" glyph-name="Z" horiz-adv-x="600" d="M565 0H35V66L416 586L55 583V680H552V614L171 94L565 97V0Z" />
<glyph unicode="[" glyph-name="bracketleft" horiz-adv-x="252" d="M223 -166H64V766H223V677H157V-77H223V-166Z" />
<glyph unicode="\" glyph-name="backslash" horiz-adv-x="443" d="M443 -170H333L0 720H111L443 -170Z" />
<glyph unicode="]" glyph-name="bracketright" horiz-adv-x="252" d="M188 -166H28V-77H96V677H28V766H188V-166Z" />
<glyph unicode="^" glyph-name="asciicircum" horiz-adv-x="609" d="M594 314H484L304 588L125 314H15L255 700H354L594 314Z" />
<glyph unicode="_" glyph-name="underscore" horiz-adv-x="294" d="M294 -156H0V-91H294V-156Z" />
<glyph unicode="`" glyph-name="grave" horiz-adv-x="591" d="M332 550H259L180 700H293L332 550Z" />
<glyph unicode="a" glyph-name="a" horiz-adv-x="521" d="M463 0H396L381 37Q309 -12 223 -12Q128 -12 84 32T40 150Q40 224 84 265T231 312L361 320V340Q361 386 337 406T248 427Q164 427 81 398V483Q153 512 257 512Q374 512 418 469T463 339V0ZM361 110V244L236
233Q185 228 163 211T140 155Q140 118 160 97T238 76Q298 76 361 110Z" />
<glyph unicode="b" glyph-name="b" horiz-adv-x="551" d="M126 0H59V700H166V476Q231 512 297 512Q411 512 459 448T507 250T459 53T297 -12Q226 -12 142 38L126 0ZM166 398V102Q220 76 283 76Q355 76 378 117T401 250T378 383T283 424Q220 424 166 398Z" />
<glyph unicode="c" glyph-name="c" horiz-adv-x="444" d="M407 100V11Q350 -12 266 -12Q145 -12 94 54T43 250T94 445T266 512Q350 512 407 489V400Q343 420 277 420Q201 420 176 379T150 250T175 121T277 80Q343 80 407 100Z" />
<glyph unicode="d" glyph-name="d" horiz-adv-x="551" d="M385 476V700H491V0H425L409 38Q325 -12 253 -12Q140 -12 92 53T43 250T91 447T253 512Q320 512 385 476ZM385 102V398Q331 424 267 424Q196 424 173 383T150 250T173 117T267 76Q331 76 385 102Z" />
<glyph unicode="e" glyph-name="e" horiz-adv-x="513" d="M455 101V20Q380 -12 268 -12Q145 -12 94 53T43 250T94 446T268 512Q322 512 360 499T420 464T454 407T470 338T474 256Q474 219 473 213H147Q149 142 175 108T273 74Q378 74 455 101ZM267 428Q201 428
175 395T147 295H372Q372 326 369 346T356 387T324 418T267 428Z" />
<glyph unicode="f" glyph-name="f" horiz-adv-x="342" d="M14 418V492L83 499V562Q83 636 124 674T261 712Q299 712 331 704V618Q303 625 272 625Q189 625 189 558V500H322V418H189V0H83V418H14Z" />
<glyph unicode="g" glyph-name="g" horiz-adv-x="551" d="M385 5V51Q316 15 253 15Q43 15 43 264Q43 512 253 512Q333 512 409 462L425 500H491V33Q491 -73 445 -122T267 -172T66 -140V-47Q155 -88 261 -88Q332 -88 358 -66T385 5ZM385 129V398Q331 424 267 424Q199
424 175 382T150 264Q150 188 174 146T267 103Q328 103 385 129Z" />
<glyph unicode="h" glyph-name="h" horiz-adv-x="538" d="M483 0H376V354Q376 391 354 406T288 422Q213 422 165 395V0H59V700H165V476Q227 512 302 512Q483 512 483 354V0Z" />
<glyph unicode="i" glyph-name="i" horiz-adv-x="250" d="M178 0H72V500H178V0ZM155 563T125 563T77 579T58 622T76 665T125 681T173 665T192 622T174 579Z" />
<glyph unicode="j" glyph-name="j" horiz-adv-x="250" d="M-16 -166V-85Q4 -90 21 -90Q48 -90 60 -78T72 -35V500H178V-36Q178 -104 144 -138T38 -172Q5 -172 -16 -166ZM155 563T125 563T77 579T58 622Q58 650 76 665T125 681Q155 681 173 665T192 622T174 579Z" />
<glyph unicode="k" glyph-name="k" horiz-adv-x="519" d="M505 0H377L223 226L164 163L165 0H59V700H165L164 295L351 500H479L288 295L505 0Z" />
<glyph unicode="l" glyph-name="l" horiz-adv-x="250" d="M178 0H72V700H178V0Z" />
<glyph unicode="m" glyph-name="m" horiz-adv-x="804" d="M750 0H643V354Q643 422 567 422Q508 422 452 395Q458 377 458 353V0H351V354Q351 422 276 422Q216 422 166 398V0H59V500H126L141 464Q206 512 294 512Q387 512 429 460Q494 512 587 512Q750 512 750 354V0Z" />
<glyph unicode="n" glyph-name="n" horiz-adv-x="538" d="M483 0H376V354Q376 391 354 406T288 422Q217 422 166 395V0H59V500H126L142 462Q217 512 302 512Q483 512 483 354V0Z" />
<glyph unicode="o" glyph-name="o" horiz-adv-x="533" d="M266 -12Q144 -12 94 53T44 250T94 447T266 512Q389 512 439 447T489 250T439 53T266 -12ZM266 76Q339 76 361 116T384 250T362 383T266 424Q195 424 172 383T149 250T172 117T266 76Z" />
<glyph unicode="p" glyph-name="p" horiz-adv-x="552" d="M166 -160H59V500H126L142 462Q226 512 297 512Q411 512 459 448T507 250T459 53T297 -12Q230 -12 166 24V-160ZM166 398V102Q220 76 283 76Q355 76 378 117T401 250T378 383T283 424Q220 424 166 398Z" />
<glyph unicode="q" glyph-name="q" horiz-adv-x="551" d="M491 -160H385V24Q320 -12 253 -12Q140 -12 92 53T43 250T91 447T253 512Q325 512 409 462L425 500H491V-160ZM385 102V398Q331 424 267 424Q196 424 173 383T150 250T173 117T267 76Q331 76 385 102Z" />
<glyph unicode="r" glyph-name="r" horiz-adv-x="342" d="M166 0H59V500H126L142 462Q216 510 320 510V412Q222 412 166 383V0Z" />
<glyph unicode="s" glyph-name="s" horiz-adv-x="469" d="M53 14V101Q126 75 211 75Q275 75 298 93T321 145Q321 179 302 196T229 219Q125 228 86 262T47 360Q47 427 94 469T245 512Q337 512 397 488V401Q328 425 246 425Q188 425 167 409T146 359Q146 329 165
314T237 294Q341 285 381 251T422 146Q422 -12 211 -12Q120 -12 53 14Z" />
<glyph unicode="t" glyph-name="t" horiz-adv-x="360" d="M324 78V-4Q290 -12 256 -12Q177 -12 130 24T83 135V418H14V492L83 499V604L190 620V500H331V418H190V147Q190 108 210 91T276 74Q302 74 324 78Z" />
<glyph unicode="u" glyph-name="u" horiz-adv-x="538" d="M479 0H412L396 38Q321 -12 235 -12Q54 -12 54 146V500H161V146Q161 78 249 78Q322 78 371 105V500H479V0Z" />
<glyph unicode="v" glyph-name="v" horiz-adv-x="501" d="M308 -8H193L15 500H125L250 106L376 500H486L308 -8Z" />
<glyph unicode="w" glyph-name="w" horiz-adv-x="688" d="M555 -8H449L344 390L238 -8H133L19 500H124L194 134L285 500H403L494 134L564 500H669L555 -8Z" />
<glyph unicode="x" glyph-name="x" horiz-adv-x="509" d="M495 0H372L254 193L137 0H14L185 257L23 500H147L254 319L362 500H485L324 257L495 0Z" />
<glyph unicode="y" glyph-name="y" horiz-adv-x="505" d="M250 -160H130L199 15L15 500H132L252 124L375 500H490L305 -1L250 -160Z" />
<glyph unicode="z" glyph-name="z" horiz-adv-x="459" d="M429 0H30V71L290 411L40 409V500H422V429L161 89L429 91V0Z" />
<glyph unicode="{" glyph-name="braceleft" horiz-adv-x="235" d="M206 -166H179Q114 -166 82 -137T54 -49L72 226Q73 243 65 250T35 258H18V342H35Q56 342 64 349T72 374L54 649Q50 708 82 737T179 766H206V677H183Q163 677 154 669T146 645L164 376Q167 324
123 300Q167 276 164 224L146 -45Q144 -61 153 -69T183 -77H206V-166Z" />
<glyph unicode="|" glyph-name="bar" horiz-adv-x="266" d="M188 -170H79V720H188V-170Z" />
<glyph unicode="}" glyph-name="braceright" horiz-adv-x="235" d="M28 -166V-77H51Q72 -77 81 -69T89 -45L70 224Q68 276 111 300Q68 324 70 376L89 645Q90 661 81 669T51 677H28V766H56Q120 766 152 737T181 649L163 374Q162 357 170 350T200 342H217V258H200Q179
258 171 251T163 226L181 -49Q185 -108 153 -137T56 -166H28Z" />
<glyph unicode="~" glyph-name="asciitilde" horiz-adv-x="516" d="M472 354V263Q435 230 367 230Q331 230 300 241T250 264T205 288T150 299Q116 299 87 287T44 262V353Q81 386 149 386Q185 386 216 375T266 352T311 328T366 317Q401 317 431 329T472 354Z" />
</font>
</defs>
</svg>
