<?xml version="1.0" standalone="no"?> <!DOCTYPE svg PUBLIC "-//W3C//DTD SVG 1.0//EN" "http://www.w3.org/TR/2001/REC-SVG-20010904/DTD/svg10.dtd" > <svg xmlns="http://www.w3.org/2000/svg" width="100%" height="100%">
<defs >
<font id="vestassans_extrabold" horiz-adv-x="579" ><font-face
    font-family="Vestas Sans Extrabold"
    units-per-em="1000"
    panose-1="2 0 0 0 0 0 0 0 0 0"
    ascent="750"
    descent="-250"
    alphabetic="0" />
<missing-glyph horiz-adv-x="850" d="M782 0H68V680H782V0ZM191 614L425 387L659 614H191ZM425 293L191 66H659L425 293ZM475 340L708 114V566L475 340ZM376 340L143 565V114L376 340Z" />
<glyph unicode=" " glyph-name="space" horiz-adv-x="178" />
<glyph unicode="!" glyph-name="exclam" horiz-adv-x="274" d="M72 244L20 680H254L202 244H72ZM27 92Q27 136 59 168T137 200T214 168T247 92Q247 47 215 15T137 -17T60 15T27 92Z" />
<glyph unicode="&quot;" glyph-name="quotedbl" horiz-adv-x="501" d="M204 453H58L21 700H240L204 453ZM443 453H297L260 700H480L443 453Z" />
<glyph unicode="#" glyph-name="numbersign" horiz-adv-x="731" d="M454 0H305L351 146H261L216 0H69L114 146H20L60 280H154L192 400H96L136 534H232L277 680H425L379 534H469L515 680H662L617 534H711L670 400H576L539 280H635L595 146H499L454 0ZM391 280L428
400H340L301 280H391Z" />
<glyph unicode="$" glyph-name="dollar" horiz-adv-x="572" d="M258 0H103L136 83Q58 95 31 107L35 266Q85 247 155 236T277 225Q343 225 343 252Q343 265 332 270T295 277Q235 282 198 287T125 303T71 329T41 370T29 431Q29 606 280 606H282L308 680H462L429
596Q500 586 524 576L520 419Q478 434 409 443T292 453Q228 453 228 427Q228 415 239 411T276 404Q336 399 372 394T444 379T499 352T530 311T542 248Q542 72 286 72H283L258 0Z" />
<glyph unicode="%" glyph-name="percent" horiz-adv-x="1093" d="M853 -17Q743 -17 688 34T632 192T687 350T853 401Q964 401 1019 350T1075 192T1020 34T853 -17ZM829 133T853 133T887 146T897 192T887 238T853 251T820 238T810 192T819 146ZM241 279Q18 279
18 488T241 697Q351 697 406 646T462 488T407 330T241 279ZM364 0H225L729 680H869L364 0ZM241 429Q264 429 274 442T284 488T274 534T241 547Q217 547 207 534T197 488T207 442T241 429Z" />
<glyph unicode="&amp;" glyph-name="ampersand" horiz-adv-x="738" d="M715 163V-15Q625 -3 525 43Q422 -17 297 -17Q153 -17 85 35T17 198Q17 306 130 374Q87 453 87 520Q87 598 148 647T325 697Q437 697 492 652T547 540Q547 480 509 444T400 378L351 358Q383
325 417 299Q448 273 497 248Q530 298 530 356Q530 397 525 420H699Q705 391 705 356Q705 263 654 179Q692 168 715 163ZM358 140Q308 173 281 198Q247 225 220 254Q201 236 201 211Q201 175 226 154T301 132Q328 132 358 140ZM290 451Q327 470 329 471Q371 492
371 519Q371 557 325 557Q275 557 275 518Q275 484 290 451Z" />
<glyph unicode="&apos;" glyph-name="quotesingle" horiz-adv-x="261" d="M204 453H58L21 700H240L204 453Z" />
<glyph unicode="(" glyph-name="parenleft" horiz-adv-x="340" d="M301 -166H146Q42 25 42 300T146 766H301Q195 569 195 300T301 -166Z" />
<glyph unicode=")" glyph-name="parenright" horiz-adv-x="340" d="M173 -166H18Q124 31 124 300T18 766H173Q278 577 278 300T173 -166Z" />
<glyph unicode="*" glyph-name="asterisk" horiz-adv-x="565" d="M552 431L435 411L516 328L342 197L283 305L224 197L50 328L131 411L14 431L81 635L193 581L176 700H390L373 581L486 635L552 431Z" />
<glyph unicode="+" glyph-name="plus" horiz-adv-x="609" d="M402 41H207V205H35V397H207V561H402V397H573V205H402V41Z" />
<glyph unicode="," glyph-name="comma" horiz-adv-x="274" d="M146 -125H-3L32 181H250L146 -125Z" />
<glyph unicode="-" glyph-name="hyphen" horiz-adv-x="354" d="M325 252H29V408H325V252Z" />
<glyph unicode="." glyph-name="period" horiz-adv-x="274" d="M182 -17T137 -17T60 15T27 92Q27 136 59 168T137 200T214 168T247 92Q247 47 215 15Z" />
<glyph unicode="/" glyph-name="slash" horiz-adv-x="543" d="M211 -170H0L333 720H543L211 -170Z" />
<glyph unicode="0" glyph-name="zero" horiz-adv-x="630" d="M264 156T315 156T385 196T405 340T386 484T315 524T245 484T225 340T244 196ZM467 -17T315 -17T100 63T37 340T100 616T314 697Q466 697 529 617T592 340T530 64Z" />
<glyph unicode="1" glyph-name="one" horiz-adv-x="630" d="M568 0H72V141L215 147V517L76 507V629L333 697H423V147L568 141V0Z" />
<glyph unicode="2" glyph-name="two" horiz-adv-x="630" d="M575 0H55V121Q229 243 291 316T354 449Q354 525 254 525Q174 525 82 487L78 654Q171 697 305 697Q385 697 439 679T518 629T552 564T562 491Q562 410 495 330T289 159L575 167V0Z" />
<glyph unicode="3" glyph-name="three" horiz-adv-x="630" d="M52 21L56 188Q151 154 263 154Q388 154 388 221Q388 284 300 284H138V416H295Q370 416 370 470Q370 527 257 527Q141 527 61 492L56 662Q134 697 276 697Q554 697 554 504Q554 457 533 420T478 361Q523
342 550 303T578 208Q578 -17 282 -17Q134 -17 52 21Z" />
<glyph unicode="4" glyph-name="four" horiz-adv-x="630" d="M527 0H324V146H33V281L304 697H527V306H598V146H527V0ZM324 306L327 465L222 304L324 306Z" />
<glyph unicode="5" glyph-name="five" horiz-adv-x="630" d="M56 19L60 191Q156 160 262 160Q318 160 350 174T382 228Q382 266 357 278T285 291H76V680H554V514H266V424H308Q360 424 395 421T466 405T524 372T560 312T574 218Q574 -17 274 -17Q134 -17 56 19Z" />
<glyph unicode="6" glyph-name="six" horiz-adv-x="630" d="M573 661L568 490Q492 526 387 526Q232 526 231 404Q231 402 231 398T232 393Q277 434 379 434Q586 434 586 221Q586 -17 322 -17Q173 -17 109 61T44 302Q44 397 58 465T105 587T200 669T353 697Q499
697 573 661ZM241 230Q243 191 260 171T318 150Q360 150 375 170T390 228Q390 265 376 285T322 305Q279 305 262 286T241 230Z" />
<glyph unicode="7" glyph-name="seven" horiz-adv-x="630" d="M335 0H118L391 518L43 514V680H591V573L335 0Z" />
<glyph unicode="8" glyph-name="eight" horiz-adv-x="630" d="M315 697Q574 697 574 499Q574 453 553 417T501 360Q542 340 567 296T592 196Q592 -17 315 -17Q178 -17 108 37T37 196Q37 252 62 296T128 360Q98 381 78 417T57 499Q57 697 315 697ZM315 152Q399
152 399 221Q399 291 315 291Q232 291 232 221Q232 152 315 152ZM353 529T315 529T261 515T245 472Q245 416 315 416Q386 416 386 472Q386 501 370 515Z" />
<glyph unicode="9" glyph-name="nine" horiz-adv-x="630" d="M57 19L61 190Q139 154 243 154Q398 154 399 276Q399 278 399 282T398 287Q353 246 251 246Q44 246 44 459Q44 697 308 697Q457 697 521 619T586 378Q586 283 572 215T525 93T430 11T277 -17Q131 -17
57 19ZM389 450Q387 489 370 509T312 530Q270 530 255 510T239 452T253 395T308 375Q351 375 368 394T389 450Z" />
<glyph unicode=":" glyph-name="colon" horiz-adv-x="274" d="M182 -17T137 -17T60 15T27 92Q27 136 59 168T137 200T214 168T247 92Q247 47 215 15ZM182 288T137 288T60 320T27 397Q27 441 59 473T137 505T214 473T247 397Q247 352 215 320Z" />
<glyph unicode=";" glyph-name="semicolon" horiz-adv-x="274" d="M146 -125H-3L32 181H250L146 -125ZM182 288T137 288T60 320T27 397Q27 441 59 473T137 505T214 473T247 397Q247 352 215 320Z" />
<glyph unicode="&lt;" glyph-name="less" horiz-adv-x="609" d="M573 7L35 218V384L573 594V395L276 301L573 207V7Z" />
<glyph unicode="=" glyph-name="equal" horiz-adv-x="609" d="M573 322H35V513H573V322ZM573 88H35V280H573V88Z" />
<glyph unicode="&gt;" glyph-name="greater" horiz-adv-x="609" d="M573 218L35 7V207L333 301L35 395V594L573 384V218Z" />
<glyph unicode="?" glyph-name="question" horiz-adv-x="514" d="M283 243H154Q131 274 131 315Q131 351 158 376T217 412T276 438T303 472Q303 496 282 508T203 521Q94 521 13 482V662Q85 697 221 697Q497 697 497 510Q497 458 475 423T420 371T356 343T302 316T279
280Q279 255 283 243ZM267 -17T222 -17T145 15T112 92Q112 136 144 168T222 200T299 168T332 92Q332 47 300 15Z" />
<glyph unicode="@" glyph-name="at" horiz-adv-x="905" d="M734 -34L735 -122Q621 -161 454 -161Q21 -161 21 250T454 661Q884 661 884 314Q884 33 633 33H541L527 57Q462 19 397 19Q307 19 259 72T210 250T258 428T397 481Q462 481 527 443L541 467H658V124Q727
123 759 169T791 315Q791 456 712 516T454 576Q277 576 198 500T119 250T198 0T454 -76Q528 -76 607 -65T734 -34ZM489 170V330Q463 340 443 340Q414 340 404 322T393 250T403 179T443 160Q463 160 489 170Z" />
<glyph unicode="A" glyph-name="A" horiz-adv-x="667" d="M659 0H446L417 118H250L221 0H9L189 681H477L659 0ZM390 257L333 511L276 257H390Z" />
<glyph unicode="B" glyph-name="B" horiz-adv-x="627" d="M350 0H42V680H346Q482 680 535 629T588 483Q588 446 570 413T519 361Q560 344 584 305T608 213Q608 114 551 57T350 0ZM239 154H329Q367 154 384 169T402 225Q402 266 384 281T328 296H239V154ZM239 405H320Q384
405 384 466Q384 498 368 512T319 526H239V405Z" />
<glyph unicode="C" glyph-name="C" horiz-adv-x="575" d="M550 194V17Q468 -17 359 -17Q189 -17 109 72T28 340Q29 518 109 607T359 697Q468 697 550 663V487Q460 513 382 513Q236 513 236 340T382 167Q462 167 550 194Z" />
<glyph unicode="D" glyph-name="D" horiz-adv-x="659" d="M308 0H42V680H308Q384 680 441 663T534 617T592 543T623 450T632 340T624 230T593 137T534 64T441 17T308 0ZM247 168H303Q369 168 394 209T420 340T395 471T303 512H247V168Z" />
<glyph unicode="E" glyph-name="E" horiz-adv-x="596" d="M562 0H42V680H562V509H248V426H531V271H248V172H562V0Z" />
<glyph unicode="F" glyph-name="F" horiz-adv-x="573" d="M248 0H42V680H551V504H248V406H519V240H248V0Z" />
<glyph unicode="G" glyph-name="G" horiz-adv-x="656" d="M615 402V34Q518 -17 359 -17Q28 -17 28 340Q28 517 109 607T366 697Q510 697 604 656V479Q498 513 391 513Q308 513 272 470T236 339Q236 248 270 210T386 172Q401 172 415 174V269H337V402H615Z" />
<glyph unicode="H" glyph-name="H" horiz-adv-x="674" d="M632 0H425V264H248V0H42V680H248V435H425V680H632V0Z" />
<glyph unicode="I" glyph-name="I" horiz-adv-x="299" d="M253 0H46V680H253V0Z" />
<glyph unicode="J" glyph-name="J" horiz-adv-x="418" d="M173 222V680H380V173Q380 77 320 30T133 -17Q54 -17 9 3V176Q63 161 101 161Q173 161 173 222Z" />
<glyph unicode="K" glyph-name="K" horiz-adv-x="679" d="M686 0H424L287 243L247 198L248 0H42V680H248L247 423L415 680H666L438 381L686 0Z" />
<glyph unicode="L" glyph-name="L" horiz-adv-x="538" d="M522 0H42V680H248V176H522V0Z" />
<glyph unicode="M" glyph-name="M" horiz-adv-x="873" d="M831 0H628L642 420L523 67H349L231 420L245 0H42V680H327L436 294L546 680H831V0Z" />
<glyph unicode="N" glyph-name="N" horiz-adv-x="684" d="M642 0H457L236 338L244 0H42V680H227L448 342L440 680H642V0Z" />
<glyph unicode="O" glyph-name="O" horiz-adv-x="679" d="M339 -17Q247 -17 185 7T89 79T42 190T28 340T41 490T88 600T184 673T339 697Q432 697 494 673T590 601T637 490T651 340T638 190T590 80T494 7T339 -17ZM339 159Q401 159 421 197T441 340T421 483T339
521Q278 521 259 483T239 340T258 197T339 159Z" />
<glyph unicode="P" glyph-name="P" horiz-adv-x="617" d="M248 0H42V680H312Q470 680 535 622T601 450Q601 339 539 279T331 219H248V0ZM248 370H324Q397 370 397 446Q397 523 324 523H248V370Z" />
<glyph unicode="Q" glyph-name="Q" horiz-adv-x="679" d="M718 -170L201 1Q106 33 67 115T28 340Q28 428 41 490T88 600T184 673T339 697Q432 697 494 673T590 601T637 490T651 340Q651 125 550 49L718 10V-170ZM339 159Q401 159 421 197T441 340T421 483T339
521Q278 521 259 483T239 340T258 197T339 159Z" />
<glyph unicode="R" glyph-name="R" horiz-adv-x="643" d="M642 0H411L316 238H244V0H42V680H326Q484 680 547 626T610 457Q610 323 513 274L642 0ZM244 386H329Q367 386 382 401T398 451Q398 484 383 500T330 516H244V386Z" />
<glyph unicode="S" glyph-name="S" horiz-adv-x="608" d="M30 34V209Q143 159 270 159Q379 159 379 211Q379 238 359 249T294 265Q219 272 175 282T95 314T44 373T29 470Q29 577 100 637T323 697Q463 697 553 660V483Q467 521 339 521Q231 521 231 469Q231 444
253 436T320 423Q391 416 435 405T516 371T567 309T583 211Q583 94 509 39T284 -17Q127 -17 30 34Z" />
<glyph unicode="T" glyph-name="T" horiz-adv-x="598" d="M402 0H196V504H16V680H581V504H402V0Z" />
<glyph unicode="U" glyph-name="U" horiz-adv-x="672" d="M430 680H636V236Q636 177 619 132T574 60T506 14T425 -10T336 -17T247 -11T166 14T98 59T52 132T35 236V680H242V253Q242 200 267 181T336 161T405 180T430 253V680Z" />
<glyph unicode="V" glyph-name="V" horiz-adv-x="674" d="M459 -1H215L9 680H234L337 238L440 680H665L459 -1Z" />
<glyph unicode="W" glyph-name="W" horiz-adv-x="918" d="M782 -1H548L459 411L370 -1H136L13 680H220L269 267L358 680H560L649 267L698 680H905L782 -1Z" />
<glyph unicode="X" glyph-name="X" horiz-adv-x="686" d="M685 0H448L344 232L239 0H2L191 355L12 680H248L344 457L439 680H674L495 355L685 0Z" />
<glyph unicode="Y" glyph-name="Y" horiz-adv-x="688" d="M448 0H240L242 262L7 680H234L345 441L454 680H682L446 262L448 0Z" />
<glyph unicode="Z" glyph-name="Z" horiz-adv-x="607" d="M593 0H14V117L313 500L35 497V680H581V563L282 180L593 183V0Z" />
<glyph unicode="[" glyph-name="bracketleft" horiz-adv-x="284" d="M264 -166H53V766H264V619H197V-19H264V-166Z" />
<glyph unicode="\" glyph-name="backslash" horiz-adv-x="543" d="M543 -170H333L0 720H211L543 -170Z" />
<glyph unicode="]" glyph-name="bracketright" horiz-adv-x="284" d="M231 -166H21V-19H87V619H21V766H231V-166Z" />
<glyph unicode="^" glyph-name="asciicircum" horiz-adv-x="672" d="M659 312H447L336 494L225 312H13L244 701H428L659 312Z" />
<glyph unicode="_" glyph-name="underscore" horiz-adv-x="294" d="M294 -159H0V-82H294V-159Z" />
<glyph unicode="`" glyph-name="grave" horiz-adv-x="568" d="M352 550H216L137 700H312L352 550Z" />
<glyph unicode="a" glyph-name="a" horiz-adv-x="543" d="M514 0H370L353 30Q290 -16 197 -16Q20 -16 20 146Q20 231 68 271T224 319L324 325V334Q324 357 308 367T248 378Q146 378 55 342V481Q147 516 285 516Q417 516 465 472T514 333V0ZM323 131V222L256 215Q224
212 209 202T194 165Q194 110 252 110Q293 110 323 131Z" />
<glyph unicode="b" glyph-name="b" horiz-adv-x="580" d="M175 0H31V700H240V493Q296 517 352 517Q461 517 511 455T562 250T512 45T352 -17Q276 -17 192 29L175 0ZM240 352V148Q264 135 296 135Q332 135 344 159T357 250T345 341T296 365Q264 365 240 352Z" />
<glyph unicode="c" glyph-name="c" horiz-adv-x="440" d="M418 164V0Q365 -17 274 -17Q138 -17 78 50T18 250T78 450T274 517Q365 517 418 500V336Q375 349 322 349Q266 349 245 326T223 250T244 174T322 151Q375 151 418 164Z" />
<glyph unicode="d" glyph-name="d" horiz-adv-x="580" d="M341 493V700H549V0H405L388 29Q304 -17 228 -17Q119 -17 69 45T18 250T68 455T228 517Q282 517 341 493ZM341 148V352Q315 365 284 365Q248 365 236 341T223 250T235 159T284 135Q315 135 341 148Z" />
<glyph unicode="e" glyph-name="e" horiz-adv-x="542" d="M510 149V18Q425 -16 288 -16Q139 -16 79 48T18 250Q18 386 81 451T286 516Q345 516 388 503T458 469T499 414T520 346T525 268Q525 220 522 188H208Q210 156 231 139T304 122Q410 122 510 149ZM208 300H339Q341
341 329 361T280 382Q241 382 225 362T208 300Z" />
<glyph unicode="f" glyph-name="f" horiz-adv-x="394" d="M7 351V490L61 496V543Q61 632 111 674T277 717Q296 717 313 716T344 712T365 709T380 705L387 703V558Q386 558 377 560T354 564T324 566Q268 566 268 530V500H380V351H268V0H61V351H7Z" />
<glyph unicode="g" glyph-name="g" horiz-adv-x="580" d="M341 17V52Q294 29 228 29Q120 29 69 86T18 273T69 459T228 517Q306 517 388 471L405 500H549V77Q549 15 538 -27T496 -106T408 -159T263 -177Q126 -177 44 -144V12Q135 -31 238 -31T341 17ZM341 193V352Q315
365 284 365Q250 365 237 343T223 273Q223 225 236 203T284 181Q313 181 341 193Z" />
<glyph unicode="h" glyph-name="h" horiz-adv-x="576" d="M548 0H340V330Q340 358 302 358Q269 358 239 344V0H31V700H239V494Q289 517 361 517Q469 517 508 471T548 339V0Z" />
<glyph unicode="i" glyph-name="i" horiz-adv-x="277" d="M242 0H35V500H242V0ZM139 531Q29 531 29 614T139 697Q248 697 248 614T139 531Z" />
<glyph unicode="j" glyph-name="j" horiz-adv-x="277" d="M-38 -168V-30Q-30 -34 -7 -34Q35 -34 35 2V500H242V-14Q242 -99 198 -138T60 -177Q1 -177 -38 -168ZM139 531Q29 531 29 614Q28 658 54 677T139 697Q248 697 248 614T139 531Z" />
<glyph unicode="k" glyph-name="k" horiz-adv-x="598" d="M603 0H351L267 150L235 115L239 0H31V700H239L235 334L346 500H586L413 277L603 0Z" />
<glyph unicode="l" glyph-name="l" horiz-adv-x="277" d="M242 0H35V700H242V0Z" />
<glyph unicode="m" glyph-name="m" horiz-adv-x="869" d="M844 0H636V330Q636 358 601 358Q570 358 540 344Q541 341 541 336V0H334V330Q334 358 299 358Q268 358 240 344V0H31V500H175L192 471Q265 517 359 517Q455 517 499 475Q576 517 661 517Q765 517 804
471T844 339V0Z" />
<glyph unicode="n" glyph-name="n" horiz-adv-x="576" d="M548 0H340V330Q340 358 302 358Q268 358 240 344V0H31V500H175L192 471Q270 517 361 517Q469 517 508 471T548 339V0Z" />
<glyph unicode="o" glyph-name="o" horiz-adv-x="559" d="M422 -17T279 -17T77 45T18 250T77 454T279 517T480 455T539 250T481 46ZM279 136Q316 136 328 159T340 250T328 341T279 364Q241 364 230 341T218 250T229 159T279 136Z" />
<glyph unicode="p" glyph-name="p" horiz-adv-x="587" d="M240 -160H31V500H175L192 471Q276 517 352 517Q461 517 511 455T562 250T512 45T352 -17Q298 -17 240 6V-160ZM240 352V148Q264 135 296 135Q332 135 344 159T357 250T345 341T296 365Q264 365 240 352Z" />
<glyph unicode="q" glyph-name="q" horiz-adv-x="580" d="M549 -160H341V6Q280 -17 228 -17Q119 -17 69 45T18 250T68 455T228 517Q304 517 388 471L405 500H549V-160ZM341 148V352Q315 365 284 365Q248 365 236 341T223 250T235 159T284 135Q315 135 341 148Z" />
<glyph unicode="r" glyph-name="r" horiz-adv-x="392" d="M240 0H31V500H175L192 471Q269 509 376 509V331Q288 331 240 307V0Z" />
<glyph unicode="s" glyph-name="s" horiz-adv-x="489" d="M27 17V169Q121 133 222 133Q276 133 276 161Q276 176 267 182T234 190Q106 199 65 230T24 341Q24 517 259 517Q366 517 444 488V337Q360 367 267 367Q212 367 212 339Q212 325 221 320T254 312Q380 303
422 272T465 160Q465 78 410 31T222 -17Q114 -17 27 17Z" />
<glyph unicode="t" glyph-name="t" horiz-adv-x="402" d="M377 146V-1Q327 -17 260 -17Q61 -17 61 156V351H7V490L61 496V595L269 625V500H387V351H269V181Q269 159 281 149T323 139Q356 139 377 146Z" />
<glyph unicode="u" glyph-name="u" horiz-adv-x="576" d="M545 0H401L384 29Q306 -17 215 -17Q107 -17 68 29T29 161V500H236V170Q236 142 274 142Q307 142 337 156V500H545V0Z" />
<glyph unicode="v" glyph-name="v" horiz-adv-x="553" d="M396 -1H157L-5 500H206L277 185L347 500H558L396 -1Z" />
<glyph unicode="w" glyph-name="w" horiz-adv-x="734" d="M644 -1H423L367 294L312 -1H90L-4 500H191L225 206L271 500H463L508 206L542 500H737L644 -1Z" />
<glyph unicode="x" glyph-name="x" horiz-adv-x="587" d="M594 0H360L294 149L227 0H-7L151 259L0 500H232L294 356L355 500H588L437 259L594 0Z" />
<glyph unicode="y" glyph-name="y" horiz-adv-x="570" d="M342 -160H106L183 15L-5 500H221L286 209L356 500H575L396 -3L342 -160Z" />
<glyph unicode="z" glyph-name="z" horiz-adv-x="511" d="M496 0H16V135L216 332L27 330V500H484V365L284 168L496 170V0Z" />
<glyph unicode="{" glyph-name="braceleft" horiz-adv-x="280" d="M257 -166H195Q124 -166 86 -133T52 -30L67 220Q69 236 51 236H17V364H51Q69 364 67 380L52 630Q48 700 86 733T195 766H257V619H214Q205 619 200 616T196 604L212 376Q214 321 174 300Q214 279
212 224L196 -4Q195 -12 200 -15T214 -19H257V-166Z" />
<glyph unicode="|" glyph-name="bar" horiz-adv-x="295" d="M252 -170H42V720H252V-170Z" />
<glyph unicode="}" glyph-name="braceright" horiz-adv-x="280" d="M21 -166V-19H64Q73 -19 77 -16T81 -4L66 224Q62 278 104 300Q62 322 66 376L81 604Q82 612 78 615T64 619H21V766H82Q153 766 191 733T225 630L210 380Q209 364 226 364H261V236H226Q209 236
210 220L225 -30Q230 -100 192 -133T82 -166H21Z" />
<glyph unicode="~" glyph-name="asciitilde" horiz-adv-x="523" d="M488 387V230Q477 219 448 211T385 202Q331 202 255 231T135 260Q105 260 75 250T34 229V386Q66 414 138 414Q192 414 268 385T388 356Q418 356 448 366T488 387Z" />
</font>
</defs>
</svg>
