<?xml version="1.0" standalone="no"?> <!DOCTYPE svg PUBLIC "-//W3C//DTD SVG 1.0//EN" "http://www.w3.org/TR/2001/REC-SVG-20010904/DTD/svg10.dtd" > <svg xmlns="http://www.w3.org/2000/svg" width="100%" height="100%">
<defs >
<font id="vestassans-bold" horiz-adv-x="439" ><font-face
    font-family="Vestas Sans Bold 081107"
    units-per-em="1000"
    panose-1="0 0 0 0 0 0 0 0 0 0"
    ascent="750"
    descent="-250"
    alphabetic="0" />
<missing-glyph horiz-adv-x="850" d="M782 0H68V680H782V0ZM191 614L425 387L659 614H191ZM425 293L191 66H659L425 293ZM475 340L708 114V566L475 340ZM376 340L143 565V114L376 340Z" />
<glyph unicode=" " glyph-name="space" horiz-adv-x="178" />
<glyph unicode="!" glyph-name="exclam" horiz-adv-x="250" d="M71 236L26 680H224L179 236H71ZM30 79Q30 119 58 146T125 174Q165 174 193 147T221 79Q221 40 193 13T125 -15Q86 -15 58 12T30 79Z" />
<glyph unicode="&quot;" glyph-name="quotedbl" horiz-adv-x="462" d="M183 457H63L28 700H218L183 457ZM399 457H280L244 700H435L399 457Z" />
<glyph unicode="#" glyph-name="numbersign" horiz-adv-x="706" d="M434 0H305L351 154H243L197 0H69L115 154H20L56 272H150L191 408H93L128 526H226L272 680H401L354 526H462L509 680H637L590 526H685L650 408H555L514 272H613L578 154H480L434 0ZM386 272L427
408H319L278 272H386Z" />
<glyph unicode="$" glyph-name="dollar" horiz-adv-x="570" d="M247 0H112L145 84Q66 95 39 107L42 242Q86 225 153 215T273 205Q368 205 368 248Q368 268 351 276T291 287Q234 292 198 297T127 312T75 338T46 377T35 435Q35 604 289 604H290L317 680H452L419
595Q482 587 514 575L511 441Q472 455 407 464T292 474Q201 474 201 432Q201 413 219 407T279 397Q336 392 371 387T441 372T494 346T524 305T535 245Q535 74 276 74H274L247 0Z" />
<glyph unicode="%" glyph-name="percent" horiz-adv-x="1064" d="M1037 -15T826 -15T615 188T826 391T1037 188ZM793 114T826 114T873 130T887 188T873 246T826 263T779 246T765 188T779 131ZM239 289Q27 289 27 492T239 695Q450 695 450 492T239 289ZM342 0H217L722
680H847L342 0ZM239 417Q271 417 285 434T299 492T285 549T239 566Q206 566 192 550T178 492Q178 450 192 434T239 417Z" />
<glyph unicode="&amp;" glyph-name="ampersand" horiz-adv-x="710" d="M684 139V-12Q599 3 507 46Q408 -15 284 -15Q150 -15 84 36T18 195Q18 305 134 374Q91 455 91 523Q91 597 147 646T311 695Q416 695 466 651T517 539Q517 480 478 443T368 375L321 356Q349
321 387 288Q428 251 483 220Q527 278 527 350Q527 388 520 420H668Q674 388 674 350Q674 246 616 160Q662 144 684 139ZM366 129Q310 165 272 202Q234 236 208 269Q174 245 174 205Q174 114 287 114Q329 114 366 129ZM269 439Q271 440 287 448T308 459Q368 486
368 523Q368 574 311 574Q250 574 250 522Q250 480 269 439Z" />
<glyph unicode="&apos;" glyph-name="quotesingle" horiz-adv-x="246" d="M183 457H63L28 700H218L183 457Z" />
<glyph unicode="(" glyph-name="parenleft" horiz-adv-x="328" d="M284 -166H148Q44 25 44 300T148 766H284Q179 571 179 300T284 -166Z" />
<glyph unicode=")" glyph-name="parenright" horiz-adv-x="328" d="M165 -166H28Q72 -86 103 34T134 300T103 566T28 766H165Q269 575 269 300T165 -166Z" />
<glyph unicode="*" glyph-name="asterisk" horiz-adv-x="517" d="M509 457L381 435L470 344L323 234L259 350L195 233L49 344L137 435L9 457L65 629L187 572L168 700H350L331 572L453 630L509 457Z" />
<glyph unicode="+" glyph-name="plus" horiz-adv-x="588" d="M376 55H212V220H39V381H212V547H376V381H548V220H376V55Z" />
<glyph unicode="," glyph-name="comma" horiz-adv-x="250" d="M127 -125H2L35 154H222L127 -125Z" />
<glyph unicode="-" glyph-name="hyphen" horiz-adv-x="347" d="M312 256H35V390H312V256Z" />
<glyph unicode="." glyph-name="period" horiz-adv-x="250" d="M125 -15Q86 -15 58 12T30 79Q30 119 58 146T125 174Q165 174 193 147T221 79Q221 40 193 13T125 -15Z" />
<glyph unicode="/" glyph-name="slash" horiz-adv-x="510" d="M178 -170H0L333 720H510L178 -170Z" />
<glyph unicode="0" glyph-name="zero" horiz-adv-x="630" d="M250 131T315 131T403 178T427 340Q427 454 404 501T315 549T227 502T203 340Q203 225 226 178ZM465 -15T315 -15T105 66T44 340T104 613T314 695Q464 695 525 614T586 340T526 67Z" />
<glyph unicode="1" glyph-name="one" horiz-adv-x="630" d="M558 0H81V117L232 124V541L83 530V629L330 695H406V124L558 117V0Z" />
<glyph unicode="2" glyph-name="two" horiz-adv-x="630" d="M571 0H58V103Q193 202 267 271T364 381T386 461Q386 503 360 526T269 549Q184 549 93 511L90 654Q177 695 307 695Q370 695 417 683T491 651T534 604T555 550T560 493Q560 413 491 332T259 137L571 143V0Z" />
<glyph unicode="3" glyph-name="three" horiz-adv-x="630" d="M57 22L60 165Q157 130 267 130Q411 130 411 214Q411 258 384 276T301 294H144V409H298Q344 409 368 428T392 479Q392 551 261 551Q153 551 64 515L60 660Q135 695 275 695Q548 695 548 505Q548 457
525 419T466 361Q514 343 543 302T573 204Q573 -15 280 -15Q137 -15 57 22Z" />
<glyph unicode="4" glyph-name="four" horiz-adv-x="630" d="M510 0H340V158H39V272L330 695H510V295H591V158H510V0ZM340 295L343 492L203 293L340 295Z" />
<glyph unicode="5" glyph-name="five" horiz-adv-x="630" d="M63 19L67 166Q161 134 263 134Q404 134 404 223Q404 273 374 288T282 303H86V680H547V539H246V418Q264 420 305 420Q355 420 390 417T460 401T517 367T552 307T566 216Q566 -15 272 -15Q141 -15 63 19Z" />
<glyph unicode="6" glyph-name="six" horiz-adv-x="630" d="M563 660L559 514Q482 550 378 550Q298 550 254 511T209 393V381Q260 434 366 434Q578 434 578 219Q578 171 566 132T527 58T448 4T323 -15Q174 -15 113 63T51 305Q51 398 65 466T112 587T205 668T353
695Q491 695 563 660ZM219 226Q221 179 242 153T320 127Q375 127 394 153T414 224Q414 268 396 294T323 320Q268 320 246 295T219 226Z" />
<glyph unicode="7" glyph-name="seven" horiz-adv-x="630" d="M311 0H125L418 542L46 539V680H587V587L311 0Z" />
<glyph unicode="8" glyph-name="eight" horiz-adv-x="630" d="M315 695Q566 695 566 500Q566 454 544 418T488 360Q533 341 559 297T586 196Q586 -15 315 -15T44 196Q44 252 70 296T141 360Q108 381 87 417T65 500Q65 695 315 695ZM209 128T315 128T421 215Q421
257 397 278T315 299T234 278T209 215Q209 128 315 128ZM366 553T315 553T245 534T225 479Q225 409 315 409Q406 409 406 479Q406 514 386 533Z" />
<glyph unicode="9" glyph-name="nine" horiz-adv-x="630" d="M67 20L70 166Q148 130 252 130Q332 130 376 169T421 287V299Q370 246 264 246Q51 246 51 461Q51 509 63 548T102 622T182 676T307 695Q455 695 516 617T578 375Q578 281 564 214T518 93T425 12T277
-15Q139 -15 67 20ZM411 454Q409 501 388 527T310 553Q255 553 236 527T216 456Q216 412 234 386T307 360Q362 360 384 385T411 454Z" />
<glyph unicode=":" glyph-name="colon" horiz-adv-x="250" d="M125 -15Q86 -15 58 12T30 79Q30 119 58 146T125 174Q165 174 193 147T221 79Q221 40 193 13T125 -15ZM125 297Q86 297 58 324T30 391Q30 431 58 458T125 486Q165 486 193 459T221 391Q221 352 193
325T125 297Z" />
<glyph unicode=";" glyph-name="semicolon" horiz-adv-x="250" d="M127 -125H2L35 154H222L127 -125ZM125 297Q86 297 58 324T30 391Q30 431 58 458T125 486Q165 486 193 459T221 391Q221 352 193 325T125 297Z" />
<glyph unicode="&lt;" glyph-name="less" horiz-adv-x="588" d="M548 14L39 230V372L548 588V418L238 301L548 183V14Z" />
<glyph unicode="=" glyph-name="equal" horiz-adv-x="588" d="M548 324H39V486H548V324ZM548 115H39V277H548V115Z" />
<glyph unicode="&gt;" glyph-name="greater" horiz-adv-x="588" d="M548 230L39 14V183L350 301L39 418V588L548 372V230Z" />
<glyph unicode="?" glyph-name="question" horiz-adv-x="509" d="M260 233H154Q134 270 134 304Q134 337 153 360T200 397T255 420T302 446T322 484Q322 515 298 530T204 546Q97 546 16 509V662Q91 695 217 695Q302 695 358 679T441 633T476 576T485 513Q485 469
468 437T426 388T371 358T316 335T274 310T257 272Q257 239 260 233ZM213 -15Q174 -15 146 12T118 79Q118 119 146 146T213 174Q253 174 281 147T309 79Q309 40 281 13T213 -15Z" />
<glyph unicode="@" glyph-name="at" horiz-adv-x="902" d="M728 -34L729 -116Q615 -155 451 -155Q243 -155 135 -58T26 250T134 557T451 655Q875 655 875 313Q875 37 629 37H549L535 64Q470 24 403 24Q313 24 266 76T218 250T265 423T403 476Q470 476 535 436L549
463H648V120Q722 119 755 166T789 314Q789 455 709 515T451 576Q275 576 197 500T118 250T196 0T451 -76Q624 -76 728 -34ZM503 162V338Q471 354 440 354Q402 354 388 331T374 250T388 169T440 146Q471 146 503 162Z" />
<glyph unicode="A" glyph-name="A" horiz-adv-x="660" d="M646 0H467L429 134H231L193 0H14L215 683H444L646 0ZM404 254L330 529L256 254H404Z" />
<glyph unicode="B" glyph-name="B" horiz-adv-x="617" d="M338 0H51V680H332Q464 680 516 630T569 487Q569 449 549 415T495 362Q540 346 565 305T591 208Q591 111 534 56T338 0ZM217 132H324Q375 132 396 152T417 218Q417 265 395 284T323 303H217V132ZM217 401H318Q398
401 398 474Q398 511 379 529T315 548H217V401Z" />
<glyph unicode="C" glyph-name="C" horiz-adv-x="575" d="M544 168V18Q467 -15 355 -15Q37 -15 37 340T355 695Q467 695 544 662V512Q458 540 373 540Q212 540 212 340T373 140Q458 140 544 168Z" />
<glyph unicode="D" glyph-name="D" horiz-adv-x="657" d="M300 0H51V680H300Q392 680 456 655T556 582T606 476T621 340T606 205T556 98T457 25T300 0ZM223 143H297Q378 143 410 191T443 340T411 488T297 537H223V143Z" />
<glyph unicode="E" glyph-name="E" horiz-adv-x="589" d="M547 0H51V680H547V535H223V416H515V283H223V146H547V0Z" />
<glyph unicode="F" glyph-name="F" horiz-adv-x="564" d="M223 0H51V680H536V532H223V400H504V260H223V0Z" />
<glyph unicode="G" glyph-name="G" horiz-adv-x="652" d="M602 391V33Q506 -15 355 -15Q37 -15 37 340Q37 513 114 604T363 695Q502 695 590 655V505Q484 541 381 541Q211 541 211 339Q211 239 249 191T375 143Q410 143 434 150V275H340V391H602Z" />
<glyph unicode="H" glyph-name="H" horiz-adv-x="671" d="M620 0H447V277H223V0H51V680H223V423H447V680H620V0Z" />
<glyph unicode="I" glyph-name="I" horiz-adv-x="290" d="M231 0H59V680H231V0Z" />
<glyph unicode="J" glyph-name="J" horiz-adv-x="408" d="M185 202V680H358V165Q358 75 302 30T127 -15Q56 -15 15 2V149Q56 136 102 136Q185 136 185 202Z" />
<glyph unicode="K" glyph-name="K" horiz-adv-x="659" d="M659 0H439L284 250L222 172L223 0H51V680H223L222 409L424 680H636L398 384L659 0Z" />
<glyph unicode="L" glyph-name="L" horiz-adv-x="535" d="M514 0H51V680H223V148H514V0Z" />
<glyph unicode="M" glyph-name="M" horiz-adv-x="852" d="M801 0H631L643 463L498 75H353L209 463L221 0H51V680H291L426 269L561 680H801V0Z" />
<glyph unicode="N" glyph-name="N" horiz-adv-x="676" d="M624 0H473L214 387L220 0H51V680H203L462 293L456 680H624V0Z" />
<glyph unicode="O" glyph-name="O" horiz-adv-x="680" d="M264 133T340 133T441 180T467 340T442 500T340 547T239 501T214 340T239 180ZM413 -15T340 -15T214 2T127 48T73 124T45 221T37 340T44 459T72 556T126 631T213 678T340 695T466 678T553 632T607 556T635
459T643 340T636 221T608 124T554 49T467 2Z" />
<glyph unicode="P" glyph-name="P" horiz-adv-x="607" d="M223 0H51V680H308Q458 680 521 622T585 455Q585 230 322 230H223V0ZM223 360H318Q412 360 412 453Q412 545 318 545H223V360Z" />
<glyph unicode="Q" glyph-name="Q" horiz-adv-x="680" d="M720 -170L206 3Q114 34 76 116T37 340Q37 408 44 459T72 556T126 631T213 678T340 695T466 678T553 632T607 556T635 459T643 340Q643 224 615 149T521 37L720 -15V-170ZM264 133T340 133T441 180T467
340T442 500T340 547T239 501T214 340T239 180Z" />
<glyph unicode="R" glyph-name="R" horiz-adv-x="635" d="M623 0H429L319 251L220 250V0H51V680H319Q469 680 529 627T590 464Q590 326 484 281L623 0ZM220 378H324Q374 378 393 398T412 459Q412 499 393 519T325 540H220V378Z" />
<glyph unicode="S" glyph-name="S" horiz-adv-x="598" d="M36 32V180Q145 134 265 134Q394 134 394 208Q394 243 370 257T292 278Q151 292 93 332T35 477Q35 577 102 636T316 695Q453 695 534 659V509Q445 546 327 546Q204 546 204 476Q204 443 229 431T313 413Q448
399 507 358T566 208Q566 -15 276 -15Q127 -15 36 32Z" />
<glyph unicode="T" glyph-name="T" horiz-adv-x="590" d="M381 0H209V532H23V680H567V532H381V0Z" />
<glyph unicode="U" glyph-name="U" horiz-adv-x="672" d="M454 680H627V230Q627 159 602 109T534 33T442 -4T336 -15T230 -4T139 33T70 109T45 230V680H218V246Q218 182 250 159T336 136T421 159T454 246V680Z" />
<glyph unicode="V" glyph-name="V" horiz-adv-x="665" d="M431 -3H235L14 680H203L333 204L462 680H651L431 -3Z" />
<glyph unicode="W" glyph-name="W" horiz-adv-x="914" d="M760 -3H567L457 455L347 -3H154L20 680H195L263 227L372 680H542L651 227L720 680H894L760 -3Z" />
<glyph unicode="X" glyph-name="X" horiz-adv-x="669" d="M660 0H461L335 248L209 0H11L210 353L19 680H217L335 441L453 680H650L460 353L660 0Z" />
<glyph unicode="Y" glyph-name="Y" horiz-adv-x="674" d="M424 0H250L251 262L16 680H206L337 414L467 680H659L422 262L424 0Z" />
<glyph unicode="Z" glyph-name="Z" horiz-adv-x="605" d="M584 0H21V100L347 529L42 526V680H571V580L245 151L584 154V0Z" />
<glyph unicode="[" glyph-name="bracketleft" horiz-adv-x="273" d="M250 -166H57V766H250V638H184V-38H250V-166Z" />
<glyph unicode="\" glyph-name="backslash" horiz-adv-x="510" d="M510 -170H333L0 720H178L510 -170Z" />
<glyph unicode="]" glyph-name="bracketright" horiz-adv-x="273" d="M217 -166H23V-38H90V638H23V766H217V-166Z" />
<glyph unicode="^" glyph-name="asciicircum" horiz-adv-x="651" d="M637 312H459L325 525L192 312H14L248 701H403L637 312Z" />
<glyph unicode="_" glyph-name="underscore" horiz-adv-x="294" d="M294 -158H0V-85H294V-158Z" />
<glyph unicode="`" glyph-name="grave" horiz-adv-x="576" d="M345 550H230L151 700H306L345 550Z" />
<glyph unicode="a" glyph-name="a" horiz-adv-x="536" d="M497 0H378L362 31Q296 -15 206 -15Q27 -15 27 144Q27 226 74 267T226 315L336 322V336Q336 364 317 377T248 391Q156 391 64 357V482Q149 515 276 515T450 471T497 335V0ZM336 124V229L249 221Q212 218
194 205T176 159Q176 99 247 99Q291 99 336 124Z" />
<glyph unicode="b" glyph-name="b" horiz-adv-x="570" d="M159 0H40V700H215V487Q271 515 334 515Q444 515 494 452T544 250T494 48T334 -15Q259 -15 175 32L159 0ZM215 368V132Q252 116 292 116Q340 116 356 145T372 250T356 354T292 384Q252 384 215 368Z" />
<glyph unicode="c" glyph-name="c" horiz-adv-x="441" d="M414 142V4Q361 -15 271 -15Q140 -15 83 51T26 250T83 448T271 515Q361 515 414 496V358Q360 373 307 373Q244 373 222 344T199 250T221 156T307 127Q360 127 414 142Z" />
<glyph unicode="d" glyph-name="d" horiz-adv-x="570" d="M356 487V700H530V0H412L395 32Q311 -15 236 -15Q126 -15 76 48T26 250T76 452T236 515Q299 515 356 487ZM356 132V368Q319 384 278 384Q230 384 215 355T199 250T214 146T278 116Q319 116 356 132Z" />
<glyph unicode="e" glyph-name="e" horiz-adv-x="532" d="M492 136V19Q411 -15 281 -15Q140 -15 83 49T26 250Q26 385 85 450T279 515Q351 515 398 496T468 440T499 363T508 265Q508 231 506 197H188Q189 155 211 133T294 110Q403 110 492 136ZM276 394Q228 394
209 371T188 300H351Q351 347 336 370T276 394Z" />
<glyph unicode="f" glyph-name="f" horiz-adv-x="377" d="M9 374V491L68 497V550Q68 633 115 674T272 715Q320 715 368 703V578Q336 586 307 586Q242 586 242 539V500H361V374H242V0H68V374H9Z" />
<glyph unicode="g" glyph-name="g" horiz-adv-x="570" d="M356 13V52Q300 24 236 24Q128 24 77 84T26 270T77 455T236 515Q317 515 395 468L412 500H530V62Q530 4 520 -36T481 -110T399 -159T264 -175Q128 -175 51 -143V-8Q141 -50 246 -50Q308 -50 332 -35T356
13ZM356 172V368Q319 384 278 384Q233 384 216 356T199 270T216 184T278 155Q320 155 356 172Z" />
<glyph unicode="h" glyph-name="h" horiz-adv-x="563" d="M526 0H352V338Q352 379 297 379Q250 379 214 361V0H40V700H214V488Q269 515 341 515Q446 515 486 471T526 344V0Z" />
<glyph unicode="i" glyph-name="i" horiz-adv-x="268" d="M221 0H47V500H221V0ZM229 542T134 542T39 616Q39 691 134 691T229 616Q229 542 134 542Z" />
<glyph unicode="j" glyph-name="j" horiz-adv-x="268" d="M-31 -168V-49Q-19 -52 2 -52Q27 -52 37 -43T47 -10V500H221V-21Q221 -100 180 -137T53 -175Q0 -175 -31 -168ZM229 542T134 542T39 616Q38 655 61 673T134 691Q229 691 229 616Q229 542 134 542Z" />
<glyph unicode="k" glyph-name="k" horiz-adv-x="572" d="M570 0H360L262 173L211 115L214 0H40V700H214L211 321L348 500H550L371 283L570 0Z" />
<glyph unicode="l" glyph-name="l" horiz-adv-x="268" d="M221 0H47V700H221V0Z" />
<glyph unicode="m" glyph-name="m" horiz-adv-x="847" d="M813 0H638V338Q638 379 590 379Q551 379 511 361Q513 355 513 342V0H340V338Q340 379 291 379Q251 379 215 362V0H40V500H159L175 469Q246 515 337 515Q433 515 476 470Q544 515 636 515Q734 515 773
471T813 344V0Z" />
<glyph unicode="n" glyph-name="n" horiz-adv-x="563" d="M526 0H352V338Q352 379 297 379Q251 379 215 361V0H40V500H159L175 468Q252 515 341 515Q446 515 486 471T526 344V0Z" />
<glyph unicode="o" glyph-name="o" horiz-adv-x="550" d="M411 -15T275 -15T83 48T27 250T83 452T275 515T466 452T522 250T467 48ZM226 116T275 116T339 145T355 250T340 355T275 384T211 355T195 250T210 145Z" />
<glyph unicode="p" glyph-name="p" horiz-adv-x="575" d="M215 -160H40V500H159L175 468Q259 515 334 515Q444 515 494 452T544 250T494 48T334 -15Q272 -15 215 12V-160ZM215 368V132Q252 116 292 116Q340 116 356 145T372 250T356 354T292 384Q252 384 215 368Z" />
<glyph unicode="q" glyph-name="q" horiz-adv-x="570" d="M530 -160H356V12Q298 -15 236 -15Q126 -15 76 48T26 250T76 452T236 515Q311 515 395 468L412 500H530V-160ZM356 132V368Q319 384 278 384Q230 384 215 355T199 250T214 146T278 116Q319 116 356 132Z" />
<glyph unicode="r" glyph-name="r" horiz-adv-x="375" d="M215 0H40V500H159L175 468Q250 509 357 509V358Q265 358 215 332V0Z" />
<glyph unicode="s" glyph-name="s" horiz-adv-x="482" d="M36 16V147Q121 114 218 114Q259 114 275 124T291 156T279 187T232 200Q112 209 72 241T32 347Q32 515 254 515Q360 515 428 488V358Q352 386 260 386Q190 386 190 346Q190 326 202 317T248 306Q367 297
409 265T451 155Q451 -15 218 -15Q113 -15 36 16Z" />
<glyph unicode="t" glyph-name="t" horiz-adv-x="388" d="M359 123V-2Q314 -15 259 -15Q68 -15 68 149V374H9V491L68 497V598L243 623V500H368V374H243V170Q243 142 258 130T307 117Q329 117 359 123Z" />
<glyph unicode="u" glyph-name="u" horiz-adv-x="563" d="M523 0H405L388 32Q312 -15 222 -15Q118 -15 78 29T37 156V500H211V162Q211 121 266 121Q312 121 348 139V500H523V0Z" />
<glyph unicode="v" glyph-name="v" horiz-adv-x="536" d="M367 -3H169L2 500H179L268 159L357 500H534L367 -3Z" />
<glyph unicode="w" glyph-name="w" horiz-adv-x="719" d="M614 -3H432L359 326L287 -3H104L4 500H169L215 182L276 500H443L503 182L549 500H714L614 -3Z" />
<glyph unicode="x" glyph-name="x" horiz-adv-x="561" d="M561 0H364L281 163L197 0H0L162 258L8 500H204L281 344L357 500H554L399 258L561 0Z" />
<glyph unicode="y" glyph-name="y" horiz-adv-x="548" d="M311 -160H114L188 15L2 500H191L275 180L362 500H547L366 -3L311 -160Z" />
<glyph unicode="z" glyph-name="z" horiz-adv-x="494" d="M474 0H21V114L241 358L31 357V500H463V386L243 142L474 143V0Z" />
<glyph unicode="{" glyph-name="braceleft" horiz-adv-x="265" d="M240 -166H190Q121 -166 85 -135T53 -37L69 222Q70 233 65 238T46 243H17V357H46Q59 357 64 362T69 378L53 637Q49 703 85 734T190 766H240V638H204Q191 638 185 633T179 618L196 376Q198 322
157 300Q198 278 196 224L179 -18Q178 -28 184 -33T204 -38H240V-166Z" />
<glyph unicode="|" glyph-name="bar" horiz-adv-x="285" d="M231 -170H54V720H231V-170Z" />
<glyph unicode="}" glyph-name="braceright" horiz-adv-x="265" d="M23 -166V-38H60Q72 -38 78 -33T84 -18L67 224Q65 277 106 300Q65 323 67 376L84 618Q85 628 79 633T60 638H23V766H73Q142 766 178 735T210 637L194 378Q193 366 198 362T217 357H246V243H217Q204
243 199 239T194 222L210 -37Q215 -103 179 -134T73 -166H23Z" />
<glyph unicode="~" glyph-name="asciitilde" horiz-adv-x="521" d="M483 376V241Q471 230 441 221T379 211Q324 211 253 242T140 273Q109 273 79 262T37 240V375Q73 405 142 405Q196 405 267 374T381 343Q412 343 442 354T483 376Z" />
</font>
</defs>
</svg>
